# MagicaVoxel @ Ephtracy

# group
o 

# material
mtllib belt.mtl
usemtl palette

# normals
vn -1 0 0
vn 1 0 0
vn 0 0 1
vn 0 0 -1
vn 0 -1 0
vn 0 1 0

# texcoords
vt 0.474609 0.5
vt 0.478516 0.5
vt 0.482422 0.5
vt 0.626953 0.5
vt 0.630859 0.5
vt 0.634766 0.5
vt 0.638672 0.5

# verts
v -0.4 0 0.2
v -0.4 0 0.1
v -0.4 0 -0.1
v -0.4 0 -0.2
v -0.4 0.1 0.2
v -0.4 0.1 0.1
v -0.4 0.1 -0.1
v -0.4 0.1 -0.2
v -0.4 0.2 0.2
v -0.4 0.2 0.1
v -0.4 0.2 -0.1
v -0.4 0.2 -0.2
v -0.3 0 0.3
v -0.3 0 0.2
v -0.3 0 -0.2
v -0.3 0 -0.3
v -0.3 0.1 0.3
v -0.3 0.1 0.2
v -0.3 0.1 -0.2
v -0.3 0.1 -0.3
v -0.3 0.2 0.3
v -0.3 0.2 0.2
v -0.3 0.2 -0.2
v -0.3 0.2 -0.3
v -0.2 0 -0.3
v -0.2 0 -0.4
v -0.2 0.1 -0.3
v -0.2 0.2 -0.3
v -0.2 0.2 -0.4
v 0.2 0 -0.3
v 0.2 0 -0.4
v 0.2 0.1 -0.3
v 0.2 0.2 -0.3
v 0.2 0.2 -0.4
v 0.3 0 0.3
v 0.3 0 0.2
v 0.3 0 -0.2
v 0.3 0 -0.3
v 0.3 0.1 0.3
v 0.3 0.1 0.2
v 0.3 0.1 -0.2
v 0.3 0.1 -0.3
v 0.3 0.2 0.3
v 0.3 0.2 0.2
v 0.3 0.2 -0.2
v 0.3 0.2 -0.3
v 0.4 0 0.2
v 0.4 0 0.1
v 0.4 0 -0.1
v 0.4 0 -0.2
v 0.4 0.1 0.2
v 0.4 0.1 0.1
v 0.4 0.1 -0.1
v 0.4 0.1 -0.2
v 0.4 0.2 0.2
v 0.4 0.2 0.1
v 0.4 0.2 -0.1
v 0.4 0.2 -0.2
v -0.3 0 0.3
v -0.3 0.1 0.3
v -0.3 0.2 0.3
v -0.2 0.1 0.3
v -0.2 0.2 0.3
v -0.1 0 0.3
v -0.1 0.1 0.3
v -0.1 0.2 0.3
v 0.1 0 0.3
v 0.1 0.1 0.3
v 0.1 0.2 0.3
v 0.2 0.1 0.3
v 0.2 0.2 0.3
v 0.3 0 0.3
v 0.3 0.1 0.3
v 0.3 0.2 0.3
v -0.4 0 0.2
v -0.4 0.1 0.2
v -0.4 0.2 0.2
v -0.3 0 0.2
v -0.3 0.1 0.2
v -0.3 0.2 0.2
v 0.3 0 0.2
v 0.3 0.1 0.2
v 0.3 0.2 0.2
v 0.4 0 0.2
v 0.4 0.1 0.2
v 0.4 0.2 0.2
v -0.4 0 -0.2
v -0.4 0.1 -0.2
v -0.4 0.2 -0.2
v -0.3 0 -0.2
v -0.3 0.1 -0.2
v -0.3 0.2 -0.2
v 0.3 0 -0.2
v 0.3 0.1 -0.2
v 0.3 0.2 -0.2
v 0.4 0 -0.2
v 0.4 0.1 -0.2
v 0.4 0.2 -0.2
v -0.3 0 -0.3
v -0.3 0.1 -0.3
v -0.3 0.2 -0.3
v -0.2 0 -0.3
v -0.2 0.1 -0.3
v -0.2 0.2 -0.3
v 0.2 0 -0.3
v 0.2 0.1 -0.3
v 0.2 0.2 -0.3
v 0.3 0 -0.3
v 0.3 0.1 -0.3
v 0.3 0.2 -0.3
v -0.2 0 -0.4
v -0.2 0.2 -0.4
v -0.1 0 -0.4
v -0.1 0.1 -0.4
v -0.1 0.2 -0.4
v 0 0.1 -0.4
v 0 0.2 -0.4
v 0.1 0 -0.4
v 0.1 0.1 -0.4
v 0.1 0.2 -0.4
v 0.2 0 -0.4
v 0.2 0.2 -0.4
v -0.3 0 0.3
v -0.1 0 0.3
v 0.1 0 0.3
v 0.3 0 0.3
v -0.4 0 0.2
v -0.3 0 0.2
v -0.1 0 0.2
v 0.1 0 0.2
v 0.3 0 0.2
v 0.4 0 0.2
v -0.4 0 0.1
v -0.3 0 0.1
v 0.3 0 0.1
v 0.4 0 0.1
v -0.4 0 -0.1
v -0.3 0 -0.1
v 0.3 0 -0.1
v 0.4 0 -0.1
v -0.4 0 -0.2
v -0.3 0 -0.2
v 0.3 0 -0.2
v 0.4 0 -0.2
v -0.3 0 -0.3
v -0.2 0 -0.3
v -0.1 0 -0.3
v 0.1 0 -0.3
v 0.2 0 -0.3
v 0.3 0 -0.3
v -0.2 0 -0.4
v -0.1 0 -0.4
v 0.1 0 -0.4
v 0.2 0 -0.4
v -0.3 0.2 0.3
v -0.2 0.2 0.3
v -0.1 0.2 0.3
v 0.1 0.2 0.3
v 0.2 0.2 0.3
v 0.3 0.2 0.3
v -0.4 0.2 0.2
v -0.3 0.2 0.2
v -0.2 0.2 0.2
v -0.1 0.2 0.2
v 0.1 0.2 0.2
v 0.2 0.2 0.2
v 0.3 0.2 0.2
v 0.4 0.2 0.2
v -0.4 0.2 0.1
v -0.3 0.2 0.1
v 0.2 0.2 0.1
v 0.3 0.2 0.1
v 0.4 0.2 0.1
v -0.4 0.2 -0.1
v -0.3 0.2 -0.1
v 0.3 0.2 -0.1
v 0.4 0.2 -0.1
v -0.4 0.2 -0.2
v -0.3 0.2 -0.2
v -0.2 0.2 -0.2
v 0.2 0.2 -0.2
v 0.3 0.2 -0.2
v 0.4 0.2 -0.2
v -0.3 0.2 -0.3
v -0.2 0.2 -0.3
v -0.1 0.2 -0.3
v 0 0.2 -0.3
v 0.1 0.2 -0.3
v 0.2 0.2 -0.3
v 0.3 0.2 -0.3
v -0.2 0.2 -0.4
v -0.1 0.2 -0.4
v 0 0.2 -0.4
v 0.1 0.2 -0.4
v 0.2 0.2 -0.4

# faces
f 5/3/1 2/3/1 1/3/1
f 6/7/1 3/7/1 2/7/1
f 6/3/1 2/3/1 5/3/1
f 7/3/1 4/3/1 3/3/1
f 7/7/1 3/7/1 6/7/1
f 8/3/1 4/3/1 7/3/1
f 9/2/1 6/2/1 5/2/1
f 10/6/1 7/6/1 6/6/1
f 10/2/1 6/2/1 9/2/1
f 11/2/1 8/2/1 7/2/1
f 11/6/1 7/6/1 10/6/1
f 12/2/1 8/2/1 11/2/1
f 17/3/1 14/3/1 13/3/1
f 18/3/1 14/3/1 17/3/1
f 19/3/1 16/3/1 15/3/1
f 20/3/1 16/3/1 19/3/1
f 21/2/1 18/2/1 17/2/1
f 22/2/1 18/2/1 21/2/1
f 23/2/1 20/2/1 19/2/1
f 24/2/1 20/2/1 23/2/1
f 27/1/1 26/1/1 25/1/1
f 28/1/1 26/1/1 27/1/1
f 29/1/1 26/1/1 28/1/1
f 30/1/2 31/1/2 32/1/2
f 32/1/2 31/1/2 33/1/2
f 33/1/2 31/1/2 34/1/2
f 35/3/2 36/3/2 39/3/2
f 39/3/2 36/3/2 40/3/2
f 37/3/2 38/3/2 41/3/2
f 41/3/2 38/3/2 42/3/2
f 39/2/2 40/2/2 43/2/2
f 43/2/2 40/2/2 44/2/2
f 41/2/2 42/2/2 45/2/2
f 45/2/2 42/2/2 46/2/2
f 47/3/2 48/3/2 51/3/2
f 48/7/2 49/7/2 52/7/2
f 51/3/2 48/3/2 52/3/2
f 49/3/2 50/3/2 53/3/2
f 52/7/2 49/7/2 53/7/2
f 53/3/2 50/3/2 54/3/2
f 51/2/2 52/2/2 55/2/2
f 52/6/2 53/6/2 56/6/2
f 55/2/2 52/2/2 56/2/2
f 53/2/2 54/2/2 57/2/2
f 56/6/2 53/6/2 57/6/2
f 57/2/2 54/2/2 58/2/2
f 62/3/3 60/3/3 59/3/3
f 62/2/3 61/2/3 60/2/3
f 63/2/3 61/2/3 62/2/3
f 64/3/3 62/3/3 59/3/3
f 65/6/3 63/6/3 62/6/3
f 65/3/3 62/3/3 64/3/3
f 66/6/3 63/6/3 65/6/3
f 67/7/3 65/7/3 64/7/3
f 68/2/3 66/2/3 65/2/3
f 68/7/3 65/7/3 67/7/3
f 69/2/3 66/2/3 68/2/3
f 70/3/3 68/3/3 67/3/3
f 70/6/3 69/6/3 68/6/3
f 71/6/3 69/6/3 70/6/3
f 72/3/3 70/3/3 67/3/3
f 73/2/3 71/2/3 70/2/3
f 73/3/3 70/3/3 72/3/3
f 74/2/3 71/2/3 73/2/3
f 78/3/3 76/3/3 75/3/3
f 79/2/3 77/2/3 76/2/3
f 79/3/3 76/3/3 78/3/3
f 80/2/3 77/2/3 79/2/3
f 84/3/3 82/3/3 81/3/3
f 85/2/3 83/2/3 82/2/3
f 85/3/3 82/3/3 84/3/3
f 86/2/3 83/2/3 85/2/3
f 87/3/4 88/3/4 90/3/4
f 88/2/4 89/2/4 91/2/4
f 90/3/4 88/3/4 91/3/4
f 91/2/4 89/2/4 92/2/4
f 93/3/4 94/3/4 96/3/4
f 94/2/4 95/2/4 97/2/4
f 96/3/4 94/3/4 97/3/4
f 97/2/4 95/2/4 98/2/4
f 99/3/4 100/3/4 102/3/4
f 100/2/4 101/2/4 103/2/4
f 102/3/4 100/3/4 103/3/4
f 103/2/4 101/2/4 104/2/4
f 105/3/4 106/3/4 108/3/4
f 106/2/4 107/2/4 109/2/4
f 108/3/4 106/3/4 109/3/4
f 109/2/4 107/2/4 110/2/4
f 111/1/4 112/1/4 113/1/4
f 113/1/4 112/1/4 114/1/4
f 114/1/4 112/1/4 115/1/4
f 113/6/4 114/6/4 116/6/4
f 114/4/4 115/4/4 116/4/4
f 116/4/4 115/4/4 117/4/4
f 113/6/4 116/6/4 118/6/4
f 116/5/4 117/5/4 119/5/4
f 118/6/4 116/6/4 119/6/4
f 119/5/4 117/5/4 120/5/4
f 118/1/4 119/1/4 121/1/4
f 119/1/4 120/1/4 121/1/4
f 121/1/4 120/1/4 122/1/4
f 128/3/5 124/3/5 123/3/5
f 129/7/5 125/7/5 124/7/5
f 129/3/5 124/3/5 128/3/5
f 130/3/5 126/3/5 125/3/5
f 130/7/5 125/7/5 129/7/5
f 131/3/5 126/3/5 130/3/5
f 133/3/5 129/3/5 128/3/5
f 133/3/5 132/3/5 131/3/5
f 133/3/5 131/3/5 130/3/5
f 133/3/5 130/3/5 129/3/5
f 133/3/5 128/3/5 127/3/5
f 134/3/5 132/3/5 133/3/5
f 135/3/5 132/3/5 134/3/5
f 136/3/5 132/3/5 135/3/5
f 137/7/5 134/7/5 133/7/5
f 138/3/5 135/3/5 134/3/5
f 138/7/5 134/7/5 137/7/5
f 139/7/5 136/7/5 135/7/5
f 139/3/5 135/3/5 138/3/5
f 140/7/5 136/7/5 139/7/5
f 141/3/5 138/3/5 137/3/5
f 141/3/5 139/3/5 138/3/5
f 141/3/5 140/3/5 139/3/5
f 142/3/5 140/3/5 141/3/5
f 143/3/5 140/3/5 142/3/5
f 144/3/5 140/3/5 143/3/5
f 145/3/5 143/3/5 142/3/5
f 146/3/5 143/3/5 145/3/5
f 147/3/5 143/3/5 146/3/5
f 148/3/5 143/3/5 147/3/5
f 149/3/5 143/3/5 148/3/5
f 150/3/5 143/3/5 149/3/5
f 151/1/5 147/1/5 146/1/5
f 152/6/5 148/6/5 147/6/5
f 152/1/5 147/1/5 151/1/5
f 153/1/5 149/1/5 148/1/5
f 153/6/5 148/6/5 152/6/5
f 154/1/5 149/1/5 153/1/5
f 155/2/6 156/2/6 162/2/6
f 156/6/6 157/6/6 163/6/6
f 162/2/6 156/2/6 163/2/6
f 157/2/6 158/2/6 164/2/6
f 163/6/6 157/6/6 164/6/6
f 158/6/6 159/6/6 165/6/6
f 164/2/6 158/2/6 165/2/6
f 159/2/6 160/2/6 166/2/6
f 165/6/6 159/6/6 166/6/6
f 166/2/6 160/2/6 167/2/6
f 161/2/6 162/2/6 169/2/6
f 164/3/6 165/3/6 170/3/6
f 169/2/6 162/2/6 170/2/6
f 162/3/6 163/3/6 170/3/6
f 163/3/6 164/3/6 170/3/6
f 165/3/6 166/3/6 170/3/6
f 167/2/6 168/2/6 171/2/6
f 170/3/6 166/3/6 171/3/6
f 166/2/6 167/2/6 171/2/6
f 171/2/6 168/2/6 172/2/6
f 172/2/6 168/2/6 173/2/6
f 169/6/6 170/6/6 174/6/6
f 170/3/6 171/3/6 175/3/6
f 174/6/6 170/6/6 175/6/6
f 171/3/6 172/3/6 175/3/6
f 172/6/6 173/6/6 176/6/6
f 175/3/6 172/3/6 176/3/6
f 176/6/6 173/6/6 177/6/6
f 174/2/6 175/2/6 178/2/6
f 175/3/6 176/3/6 179/3/6
f 178/2/6 175/2/6 179/2/6
f 179/3/6 176/3/6 180/3/6
f 180/3/6 176/3/6 181/3/6
f 176/2/6 177/2/6 182/2/6
f 181/3/6 176/3/6 182/3/6
f 182/2/6 177/2/6 183/2/6
f 179/2/6 180/2/6 184/2/6
f 180/3/6 181/3/6 185/3/6
f 184/2/6 180/2/6 185/2/6
f 185/3/6 181/3/6 186/3/6
f 186/3/6 181/3/6 187/3/6
f 187/3/6 181/3/6 188/3/6
f 181/2/6 182/2/6 189/2/6
f 188/3/6 181/3/6 189/3/6
f 189/2/6 182/2/6 190/2/6
f 185/1/6 186/1/6 191/1/6
f 186/4/6 187/4/6 192/4/6
f 191/1/6 186/1/6 192/1/6
f 187/5/6 188/5/6 193/5/6
f 192/4/6 187/4/6 193/4/6
f 188/1/6 189/1/6 194/1/6
f 193/5/6 188/5/6 194/5/6
f 194/1/6 189/1/6 195/1/6
