# MagicaVoxel @ Ephtracy

# group
o 

# material
mtllib hand.mtl
usemtl palette

# normals
vn -1 0 0
vn 1 0 0
vn 0 0 1
vn 0 0 -1
vn 0 -1 0
vn 0 1 0

# texcoords
vt 0.00195313 0.5
vt 0.0175781 0.5
vt 0.474609 0.5
vt 0.626953 0.5
vt 0.630859 0.5

# verts
v -0.1 0.1 -0.1
v -0.1 0.1 -0.2
v -0.1 0.2 -0.1
v -0.1 0.2 -0.2
v -0.1 0.3 0.1
v -0.1 0.3 0
v -0.1 0.3 -0.1
v -0.1 0.3 -0.2
v -0.1 0.4 0.1
v -0.1 0.4 0
v -0.1 0.4 -0.1
v -0.1 0.4 -0.2
v -0.1 0.5 0.1
v -0.1 0.5 -0.2
v 0 0 -0.1
v 0 0 -0.2
v 0 0.1 0.1
v 0 0.1 -0.1
v 0 0.1 -0.2
v 0 0.2 0.1
v 0 0.2 -0.1
v 0 0.3 0.1
v 0 0.3 0
v 0 0.3 -0.1
v 0.1 0 0.1
v 0.1 0 -0.1
v 0.1 0.1 0.1
v 0.1 0.1 -0.1
v 0.2 0 0.1
v 0.2 0 -0.2
v 0.2 0.2 0.1
v 0.2 0.2 -0.2
v 0.2 0.3 0.1
v 0.2 0.3 0
v 0.2 0.3 -0.1
v 0.2 0.3 -0.2
v 0.2 0.4 0.1
v 0.2 0.4 0
v 0.2 0.4 -0.1
v 0.2 0.4 -0.2
v 0.2 0.5 0.1
v 0.2 0.5 -0.2
v -0.1 0.3 0.1
v -0.1 0.4 0.1
v -0.1 0.5 0.1
v 0 0.1 0.1
v 0 0.2 0.1
v 0 0.3 0.1
v 0 0.4 0.1
v 0.1 0 0.1
v 0.1 0.1 0.1
v 0.1 0.3 0.1
v 0.1 0.4 0.1
v 0.2 0 0.1
v 0.2 0.2 0.1
v 0.2 0.3 0.1
v 0.2 0.4 0.1
v 0.2 0.5 0.1
v -0.1 0.1 -0.1
v -0.1 0.2 -0.1
v -0.1 0.3 -0.1
v 0 0 -0.1
v 0 0.1 -0.1
v 0 0.2 -0.1
v 0 0.3 -0.1
v 0.1 0 -0.1
v 0.1 0.1 -0.1
v -0.1 0.1 -0.2
v -0.1 0.2 -0.2
v -0.1 0.3 -0.2
v -0.1 0.4 -0.2
v -0.1 0.5 -0.2
v 0 0 -0.2
v 0 0.1 -0.2
v 0 0.3 -0.2
v 0 0.4 -0.2
v 0.1 0.3 -0.2
v 0.1 0.4 -0.2
v 0.2 0 -0.2
v 0.2 0.2 -0.2
v 0.2 0.3 -0.2
v 0.2 0.4 -0.2
v 0.2 0.5 -0.2
v 0.1 0 0.1
v 0.2 0 0.1
v 0 0 -0.1
v 0.1 0 -0.1
v 0 0 -0.2
v 0.2 0 -0.2
v 0 0.1 0.1
v 0.1 0.1 0.1
v -0.1 0.1 -0.1
v 0 0.1 -0.1
v 0.1 0.1 -0.1
v -0.1 0.1 -0.2
v 0 0.1 -0.2
v -0.1 0.3 0.1
v 0 0.3 0.1
v -0.1 0.3 0
v 0 0.3 0
v -0.1 0.3 -0.1
v 0 0.3 -0.1
v -0.1 0.5 0.1
v 0.2 0.5 0.1
v -0.1 0.5 -0.2
v 0.2 0.5 -0.2

# faces
f 3/1/1 2/1/1 1/1/1
f 4/1/1 2/1/1 3/1/1
f 7/2/1 4/2/1 3/2/1
f 8/2/1 4/2/1 7/2/1
f 9/5/1 6/5/1 5/5/1
f 10/3/1 7/3/1 6/3/1
f 10/5/1 6/5/1 9/5/1
f 11/5/1 8/5/1 7/5/1
f 11/3/1 7/3/1 10/3/1
f 12/5/1 8/5/1 11/5/1
f 13/1/1 10/1/1 9/1/1
f 13/1/1 11/1/1 10/1/1
f 13/1/1 12/1/1 11/1/1
f 14/1/1 12/1/1 13/1/1
f 18/1/1 16/1/1 15/1/1
f 19/1/1 16/1/1 18/1/1
f 20/1/1 18/1/1 17/1/1
f 21/1/1 18/1/1 20/1/1
f 22/2/1 21/2/1 20/2/1
f 23/2/1 21/2/1 22/2/1
f 24/2/1 21/2/1 23/2/1
f 27/1/1 26/1/1 25/1/1
f 28/1/1 26/1/1 27/1/1
f 29/1/2 30/1/2 31/1/2
f 31/1/2 30/1/2 32/1/2
f 31/2/2 32/2/2 33/2/2
f 33/2/2 32/2/2 34/2/2
f 34/2/2 32/2/2 35/2/2
f 35/2/2 32/2/2 36/2/2
f 33/5/2 34/5/2 37/5/2
f 34/3/2 35/3/2 38/3/2
f 37/5/2 34/5/2 38/5/2
f 35/5/2 36/5/2 39/5/2
f 38/3/2 35/3/2 39/3/2
f 39/5/2 36/5/2 40/5/2
f 37/1/2 38/1/2 41/1/2
f 38/1/2 39/1/2 41/1/2
f 39/1/2 40/1/2 41/1/2
f 41/1/2 40/1/2 42/1/2
f 48/5/3 44/5/3 43/5/3
f 49/1/3 45/1/3 44/1/3
f 49/5/3 44/5/3 48/5/3
f 51/1/3 47/1/3 46/1/3
f 52/2/3 48/2/3 47/2/3
f 52/3/3 49/3/3 48/3/3
f 53/1/3 45/1/3 49/1/3
f 53/3/3 49/3/3 52/3/3
f 54/1/3 51/1/3 50/1/3
f 55/2/3 52/2/3 47/2/3
f 55/1/3 51/1/3 54/1/3
f 55/1/3 47/1/3 51/1/3
f 56/5/3 53/5/3 52/5/3
f 56/2/3 52/2/3 55/2/3
f 57/1/3 45/1/3 53/1/3
f 57/5/3 53/5/3 56/5/3
f 58/1/3 45/1/3 57/1/3
f 63/1/3 60/1/3 59/1/3
f 64/2/3 61/2/3 60/2/3
f 64/1/3 60/1/3 63/1/3
f 65/2/3 61/2/3 64/2/3
f 66/1/3 63/1/3 62/1/3
f 67/1/3 63/1/3 66/1/3
f 68/1/4 69/1/4 74/1/4
f 69/2/4 70/2/4 75/2/4
f 70/5/4 71/5/4 75/5/4
f 71/1/4 72/1/4 76/1/4
f 75/5/4 71/5/4 76/5/4
f 69/2/4 75/2/4 77/2/4
f 75/3/4 76/3/4 77/3/4
f 76/1/4 72/1/4 78/1/4
f 77/3/4 76/3/4 78/3/4
f 73/1/4 74/1/4 79/1/4
f 69/2/4 77/2/4 80/2/4
f 79/1/4 74/1/4 80/1/4
f 74/1/4 69/1/4 80/1/4
f 77/5/4 78/5/4 81/5/4
f 80/2/4 77/2/4 81/2/4
f 78/1/4 72/1/4 82/1/4
f 81/5/4 78/5/4 82/5/4
f 82/1/4 72/1/4 83/1/4
f 87/1/5 85/1/5 84/1/5
f 88/1/5 87/1/5 86/1/5
f 89/1/5 85/1/5 87/1/5
f 89/1/5 87/1/5 88/1/5
f 93/1/5 91/1/5 90/1/5
f 94/1/5 91/1/5 93/1/5
f 95/1/5 93/1/5 92/1/5
f 96/1/5 93/1/5 95/1/5
f 99/5/5 98/5/5 97/5/5
f 100/5/5 98/5/5 99/5/5
f 101/3/5 100/3/5 99/3/5
f 102/3/5 100/3/5 101/3/5
f 103/1/6 104/1/6 105/1/6
f 105/1/6 104/1/6 106/1/6
