# MagicaVoxel @ Ephtracy

# group
o 

# material
mtllib shoulder_1.mtl
usemtl palette

# normals
vn -1 0 0
vn 1 0 0
vn 0 0 1
vn 0 0 -1
vn 0 -1 0
vn 0 1 0

# texcoords
vt 0.720703 0.5
vt 0.724609 0.5
vt 0.728516 0.5

# verts
v -0.2 0.2 0.2
v -0.2 0.2 0.1
v -0.2 0.2 0
v -0.2 0.2 -0.1
v -0.2 0.2 -0.2
v -0.2 0.2 -0.3
v -0.2 0.3 0.2
v -0.2 0.3 0.1
v -0.2 0.3 -0.1
v -0.2 0.3 -0.2
v -0.2 0.3 -0.3
v -0.2 0.4 0.1
v -0.2 0.4 0
v -0.2 0.4 -0.1
v -0.2 0.4 -0.2
v 0 0.1 0.1
v 0 0.1 0
v 0 0.1 -0.1
v 0 0.1 -0.2
v 0 0.2 0.1
v 0 0.2 0
v 0 0.2 -0.1
v 0 0.2 -0.2
v 0.1 0 0.1
v 0.1 0 0
v 0.1 0 -0.1
v 0.1 0 -0.2
v 0.1 0.1 0.1
v 0.1 0.1 0
v 0.1 0.1 -0.1
v 0.1 0.1 -0.2
v 0.2 0.1 0.1
v 0.2 0.1 0
v 0.2 0.1 -0.1
v 0.2 0.1 -0.2
v 0.2 0.2 0.1
v 0.2 0.2 0
v 0.2 0.2 -0.1
v 0.2 0.2 -0.2
v -0.1 0.2 0.2
v -0.1 0.2 0.1
v -0.1 0.2 -0.2
v -0.1 0.2 -0.3
v -0.1 0.3 0.2
v -0.1 0.3 0.1
v -0.1 0.3 0
v -0.1 0.3 -0.1
v -0.1 0.3 -0.2
v -0.1 0.3 -0.3
v -0.1 0.4 0.1
v -0.1 0.4 0
v -0.1 0.4 -0.1
v -0.1 0.4 -0.2
v 0 0.2 0.1
v 0 0.2 0
v 0 0.2 -0.1
v 0 0.2 -0.2
v 0 0.3 0.1
v 0 0.3 0
v 0 0.3 -0.1
v 0 0.3 -0.2
v 0.1 0.1 0.1
v 0.1 0.1 0
v 0.1 0.1 -0.1
v 0.1 0.1 -0.2
v 0.1 0.2 0.1
v 0.1 0.2 0
v 0.1 0.2 -0.1
v 0.1 0.2 -0.2
v 0.2 0 0.1
v 0.2 0 0
v 0.2 0 -0.1
v 0.2 0 -0.2
v 0.2 0.1 0.1
v 0.2 0.1 0
v 0.2 0.1 -0.1
v 0.2 0.1 -0.2
v 0.3 0 0
v 0.3 0 -0.1
v 0.3 0.1 0.1
v 0.3 0.1 0
v 0.3 0.1 -0.1
v 0.3 0.1 -0.2
v 0.3 0.2 0.1
v 0.3 0.2 0
v 0.3 0.2 -0.1
v 0.3 0.2 -0.2
v -0.2 0.2 0.2
v -0.2 0.3 0.2
v -0.1 0.2 0.2
v -0.1 0.3 0.2
v -0.2 0.3 0.1
v -0.2 0.4 0.1
v -0.1 0.2 0.1
v -0.1 0.3 0.1
v -0.1 0.4 0.1
v 0 0.1 0.1
v 0 0.2 0.1
v 0 0.3 0.1
v 0.1 0 0.1
v 0.1 0.1 0.1
v 0.1 0.2 0.1
v 0.2 0 0.1
v 0.2 0.1 0.1
v 0.2 0.2 0.1
v 0.3 0.1 0.1
v 0.3 0.2 0.1
v 0.2 0 0
v 0.2 0.1 0
v 0.3 0 0
v 0.3 0.1 0
v 0.2 0.1 -0.1
v 0.2 0.2 -0.1
v 0.3 0.1 -0.1
v 0.3 0.2 -0.1
v 0.2 0.1 0
v 0.2 0.2 0
v 0.3 0.1 0
v 0.3 0.2 0
v 0.2 0 -0.1
v 0.2 0.1 -0.1
v 0.3 0 -0.1
v 0.3 0.1 -0.1
v -0.2 0.3 -0.2
v -0.2 0.4 -0.2
v -0.1 0.2 -0.2
v -0.1 0.3 -0.2
v -0.1 0.4 -0.2
v 0 0.1 -0.2
v 0 0.2 -0.2
v 0 0.3 -0.2
v 0.1 0 -0.2
v 0.1 0.1 -0.2
v 0.1 0.2 -0.2
v 0.2 0 -0.2
v 0.2 0.1 -0.2
v 0.2 0.2 -0.2
v 0.3 0.1 -0.2
v 0.3 0.2 -0.2
v -0.2 0.2 -0.3
v -0.2 0.3 -0.3
v -0.1 0.2 -0.3
v -0.1 0.3 -0.3
v 0.1 0 0.1
v 0.2 0 0.1
v 0.1 0 0
v 0.2 0 0
v 0.3 0 0
v 0.1 0 -0.1
v 0.2 0 -0.1
v 0.3 0 -0.1
v 0.1 0 -0.2
v 0.2 0 -0.2
v 0 0.1 0.1
v 0.1 0.1 0.1
v 0.2 0.1 0.1
v 0.3 0.1 0.1
v 0 0.1 0
v 0.1 0.1 0
v 0.2 0.1 0
v 0.3 0.1 0
v 0 0.1 -0.1
v 0.1 0.1 -0.1
v 0.2 0.1 -0.1
v 0.3 0.1 -0.1
v 0 0.1 -0.2
v 0.1 0.1 -0.2
v 0.2 0.1 -0.2
v 0.3 0.1 -0.2
v -0.2 0.2 0.2
v -0.1 0.2 0.2
v -0.2 0.2 0.1
v -0.1 0.2 0.1
v 0 0.2 0.1
v -0.2 0.2 0
v 0 0.2 0
v -0.2 0.2 -0.1
v 0 0.2 -0.1
v -0.2 0.2 -0.2
v -0.1 0.2 -0.2
v 0 0.2 -0.2
v -0.2 0.2 -0.3
v -0.1 0.2 -0.3
v 0.1 0.1 0.1
v 0.2 0.1 0.1
v 0.1 0.1 0
v 0.2 0.1 0
v 0.3 0.1 0
v 0.1 0.1 -0.1
v 0.2 0.1 -0.1
v 0.3 0.1 -0.1
v 0.1 0.1 -0.2
v 0.2 0.1 -0.2
v 0 0.2 0.1
v 0.1 0.2 0.1
v 0.2 0.2 0.1
v 0.3 0.2 0.1
v 0 0.2 0
v 0.1 0.2 0
v 0.2 0.2 0
v 0.3 0.2 0
v 0 0.2 -0.1
v 0.1 0.2 -0.1
v 0.2 0.2 -0.1
v 0.3 0.2 -0.1
v 0 0.2 -0.2
v 0.1 0.2 -0.2
v 0.2 0.2 -0.2
v 0.3 0.2 -0.2
v -0.2 0.3 0.2
v -0.1 0.3 0.2
v -0.2 0.3 0.1
v -0.1 0.3 0.1
v 0 0.3 0.1
v -0.1 0.3 0
v 0 0.3 0
v -0.1 0.3 -0.1
v 0 0.3 -0.1
v -0.2 0.3 -0.2
v -0.1 0.3 -0.2
v 0 0.3 -0.2
v -0.2 0.3 -0.3
v -0.1 0.3 -0.3
v -0.2 0.4 0.1
v -0.1 0.4 0.1
v -0.2 0.4 0
v -0.1 0.4 0
v -0.2 0.4 -0.1
v -0.1 0.4 -0.1
v -0.2 0.4 -0.2
v -0.1 0.4 -0.2

# faces
f 7/3/1 2/3/1 1/3/1
f 8/2/1 3/2/1 2/2/1
f 8/3/1 2/3/1 7/3/1
f 9/1/1 4/1/1 3/1/1
f 9/2/1 5/2/1 4/2/1
f 10/3/1 6/3/1 5/3/1
f 10/2/1 5/2/1 9/2/1
f 11/3/1 6/3/1 10/3/1
f 12/2/1 3/2/1 8/2/1
f 13/1/1 9/1/1 3/1/1
f 13/2/1 3/2/1 12/2/1
f 14/3/1 10/3/1 9/3/1
f 14/1/1 9/1/1 13/1/1
f 15/3/1 10/3/1 14/3/1
f 20/3/1 17/3/1 16/3/1
f 21/1/1 18/1/1 17/1/1
f 21/3/1 17/3/1 20/3/1
f 22/2/1 19/2/1 18/2/1
f 22/1/1 18/1/1 21/1/1
f 23/2/1 19/2/1 22/2/1
f 28/2/1 25/2/1 24/2/1
f 29/1/1 26/1/1 25/1/1
f 29/2/1 25/2/1 28/2/1
f 30/3/1 27/3/1 26/3/1
f 30/1/1 26/1/1 29/1/1
f 31/3/1 27/3/1 30/3/1
f 36/2/1 33/2/1 32/2/1
f 37/2/1 33/2/1 36/2/1
f 38/2/1 35/2/1 34/2/1
f 39/2/1 35/2/1 38/2/1
f 40/3/2 41/3/2 44/3/2
f 44/3/2 41/3/2 45/3/2
f 42/3/2 43/3/2 48/3/2
f 48/3/2 43/3/2 49/3/2
f 45/2/2 46/2/2 50/2/2
f 46/1/2 47/1/2 51/1/2
f 50/2/2 46/2/2 51/2/2
f 47/3/2 48/3/2 52/3/2
f 51/1/2 47/1/2 52/1/2
f 52/3/2 48/3/2 53/3/2
f 54/2/2 55/2/2 58/2/2
f 55/1/2 56/1/2 59/1/2
f 58/2/2 55/2/2 59/2/2
f 56/2/2 57/2/2 60/2/2
f 59/1/2 56/1/2 60/1/2
f 60/2/2 57/2/2 61/2/2
f 62/3/2 63/3/2 66/3/2
f 63/1/2 64/1/2 67/1/2
f 66/3/2 63/3/2 67/3/2
f 64/2/2 65/2/2 68/2/2
f 67/1/2 64/1/2 68/1/2
f 68/2/2 65/2/2 69/2/2
f 70/2/2 71/2/2 74/2/2
f 74/2/2 71/2/2 75/2/2
f 72/3/2 73/3/2 76/3/2
f 76/3/2 73/3/2 77/3/2
f 78/2/2 79/2/2 81/2/2
f 81/2/2 79/2/2 82/2/2
f 80/2/2 81/2/2 84/2/2
f 84/2/2 81/2/2 85/2/2
f 82/2/2 83/2/2 86/2/2
f 86/2/2 83/2/2 87/2/2
f 90/3/3 89/3/3 88/3/3
f 91/3/3 89/3/3 90/3/3
f 95/2/3 93/2/3 92/2/3
f 96/2/3 93/2/3 95/2/3
f 98/2/3 95/2/3 94/2/3
f 99/2/3 95/2/3 98/2/3
f 101/3/3 98/3/3 97/3/3
f 102/3/3 98/3/3 101/3/3
f 103/2/3 101/2/3 100/2/3
f 104/2/3 101/2/3 103/2/3
f 106/2/3 105/2/3 104/2/3
f 107/2/3 105/2/3 106/2/3
f 110/2/3 109/2/3 108/2/3
f 111/2/3 109/2/3 110/2/3
f 114/2/3 113/2/3 112/2/3
f 115/2/3 113/2/3 114/2/3
f 116/2/4 117/2/4 118/2/4
f 118/2/4 117/2/4 119/2/4
f 120/2/4 121/2/4 122/2/4
f 122/2/4 121/2/4 123/2/4
f 124/3/4 125/3/4 127/3/4
f 127/3/4 125/3/4 128/3/4
f 126/2/4 127/2/4 130/2/4
f 130/2/4 127/2/4 131/2/4
f 129/2/4 130/2/4 133/2/4
f 133/2/4 130/2/4 134/2/4
f 132/3/4 133/3/4 135/3/4
f 135/3/4 133/3/4 136/3/4
f 136/2/4 137/2/4 138/2/4
f 138/2/4 137/2/4 139/2/4
f 140/3/4 141/3/4 142/3/4
f 142/3/4 141/3/4 143/3/4
f 146/2/5 145/2/5 144/2/5
f 147/2/5 145/2/5 146/2/5
f 149/1/5 147/1/5 146/1/5
f 150/2/5 148/2/5 147/2/5
f 150/1/5 147/1/5 149/1/5
f 151/2/5 148/2/5 150/2/5
f 152/3/5 150/3/5 149/3/5
f 153/3/5 150/3/5 152/3/5
f 158/3/5 155/3/5 154/3/5
f 159/3/5 155/3/5 158/3/5
f 160/2/5 157/2/5 156/2/5
f 161/2/5 157/2/5 160/2/5
f 162/1/5 159/1/5 158/1/5
f 163/1/5 159/1/5 162/1/5
f 166/2/5 163/2/5 162/2/5
f 167/2/5 163/2/5 166/2/5
f 168/2/5 165/2/5 164/2/5
f 169/2/5 165/2/5 168/2/5
f 172/3/5 171/3/5 170/3/5
f 173/3/5 171/3/5 172/3/5
f 175/2/5 173/2/5 172/2/5
f 175/2/5 174/2/5 173/2/5
f 176/2/5 174/2/5 175/2/5
f 177/1/5 176/1/5 175/1/5
f 178/1/5 176/1/5 177/1/5
f 179/2/5 178/2/5 177/2/5
f 180/2/5 178/2/5 179/2/5
f 181/2/5 178/2/5 180/2/5
f 182/3/5 180/3/5 179/3/5
f 183/3/5 180/3/5 182/3/5
f 184/2/6 185/2/6 186/2/6
f 186/2/6 185/2/6 187/2/6
f 186/1/6 187/1/6 189/1/6
f 187/2/6 188/2/6 190/2/6
f 189/1/6 187/1/6 190/1/6
f 190/2/6 188/2/6 191/2/6
f 189/3/6 190/3/6 192/3/6
f 192/3/6 190/3/6 193/3/6
f 194/3/6 195/3/6 198/3/6
f 198/3/6 195/3/6 199/3/6
f 196/2/6 197/2/6 200/2/6
f 200/2/6 197/2/6 201/2/6
f 198/1/6 199/1/6 202/1/6
f 202/1/6 199/1/6 203/1/6
f 202/2/6 203/2/6 206/2/6
f 206/2/6 203/2/6 207/2/6
f 204/2/6 205/2/6 208/2/6
f 208/2/6 205/2/6 209/2/6
f 210/3/6 211/3/6 212/3/6
f 212/3/6 211/3/6 213/3/6
f 213/2/6 214/2/6 215/2/6
f 215/2/6 214/2/6 216/2/6
f 215/1/6 216/1/6 217/1/6
f 217/1/6 216/1/6 218/1/6
f 217/2/6 218/2/6 220/2/6
f 220/2/6 218/2/6 221/2/6
f 219/3/6 220/3/6 222/3/6
f 222/3/6 220/3/6 223/3/6
f 224/2/6 225/2/6 226/2/6
f 226/2/6 225/2/6 227/2/6
f 226/1/6 227/1/6 228/1/6
f 228/1/6 227/1/6 229/1/6
f 228/3/6 229/3/6 230/3/6
f 230/3/6 229/3/6 231/3/6
