# MagicaVoxel @ Ephtracy

# group
o 

# material
mtllib 1haxe_bronze-0.mtl
usemtl palette

# normals
vn -1 0 0
vn 1 0 0
vn 0 0 1
vn 0 0 -1
vn 0 -1 0
vn 0 1 0

# texcoords
vt 0.392578 0.5
vt 0.396484 0.5
vt 0.400391 0.5
vt 0.404297 0.5
vt 0.720703 0.5
vt 0.724609 0.5
vt 0.728516 0.5

# verts
v -0.1 2 5.96046e-008
v -0.1 2 -0.2
v -0.1 2.1 5.96046e-008
v -0.1 2.1 -0.2
v -0.1 2.2 5.96046e-008
v -0.1 2.2 -0.2
v 0 0.2 5.96046e-008
v 0 0.2 -0.1
v 0 0.2 -0.2
v 0 0.3 5.96046e-008
v 0 0.3 -0.1
v 0 0.3 -0.2
v 0 0.4 5.96046e-008
v 0 0.4 -0.1
v 0 0.4 -0.2
v 0 0.5 5.96046e-008
v 0 0.5 -0.2
v 0 0.6 5.96046e-008
v 0 0.6 -0.1
v 0 0.6 -0.2
v 0 0.7 5.96046e-008
v 0 0.7 -0.1
v 0 0.7 -0.2
v 0 0.8 5.96046e-008
v 0 0.8 -0.1
v 0 0.8 -0.2
v 0 0.9 5.96046e-008
v 0 0.9 -0.1
v 0 0.9 -0.2
v 0 1 5.96046e-008
v 0 1 -0.1
v 0 1 -0.2
v 0 1.1 5.96046e-008
v 0 1.1 -0.1
v 0 1.1 -0.2
v 0 1.2 5.96046e-008
v 0 1.2 -0.1
v 0 1.2 -0.2
v 0 1.3 5.96046e-008
v 0 1.3 -0.1
v 0 1.4 0.3
v 0 1.4 0.2
v 0 1.4 5.96046e-008
v 0 1.4 -0.1
v 0 1.4 -0.2
v 0 1.5 0.4
v 0 1.5 0.3
v 0 1.5 0.2
v 0 1.5 5.96046e-008
v 0 1.5 -0.1
v 0 1.5 -0.2
v 0 1.6 0.5
v 0 1.6 0.4
v 0 1.6 0.3
v 0 1.6 0.2
v 0 1.6 5.96046e-008
v 0 1.6 -0.1
v 0 1.7 -0.1
v 0 1.7 -0.2
v 0 1.8 0.6
v 0 1.8 0.5
v 0 1.8 5.96046e-008
v 0 1.8 -0.1
v 0 1.8 -0.2
v 0 1.9 0.2
v 0 1.9 0.1
v 0 1.9 5.96046e-008
v 0 1.9 -0.1
v 0 1.9 -0.2
v 0 2 0.2
v 0 2 0.1
v 0 2 5.96046e-008
v 0 2 -0.1
v 0 2 -0.2
v 0 2 -0.4
v 0 2.1 0.1
v 0 2.1 5.96046e-008
v 0 2.1 -0.2
v 0 2.1 -0.4
v 0 2.1 -0.5
v 0 2.2 0.6
v 0 2.2 0.5
v 0 2.2 0.1
v 0 2.2 5.96046e-008
v 0 2.2 -0.1
v 0 2.2 -0.2
v 0 2.2 -0.5
v 0 2.3 0.5
v 0 2.3 0.4
v 0 2.3 0.3
v 0 2.3 0.2
v 0 2.3 0.1
v 0 2.3 5.96046e-008
v 0 2.3 -0.1
v 0 2.3 -0.2
v 0 2.4 0.4
v 0 2.4 0.3
v 0 2.4 0.2
v 0 2.4 0.1
v 0 2.4 5.96046e-008
v 0 2.4 -0.1
v 0 2.4 -0.2
v 0 2.5 0.3
v 0 2.5 0.2
v 0 2.5 0.1
v 0 2.5 -0.1
v 0 2.5 -0.2
v 0.2 0.2 5.96046e-008
v 0.2 0.2 -0.1
v 0.2 0.2 -0.2
v 0.2 0.3 5.96046e-008
v 0.2 0.3 -0.1
v 0.2 0.3 -0.2
v 0.2 0.4 5.96046e-008
v 0.2 0.4 -0.1
v 0.2 0.4 -0.2
v 0.2 0.5 5.96046e-008
v 0.2 0.5 -0.1
v 0.2 0.5 -0.2
v 0.2 0.6 5.96046e-008
v 0.2 0.6 -0.1
v 0.2 0.6 -0.2
v 0.2 0.7 5.96046e-008
v 0.2 0.7 -0.1
v 0.2 0.7 -0.2
v 0.2 0.8 -0.1
v 0.2 0.8 -0.2
v 0.2 0.9 5.96046e-008
v 0.2 0.9 -0.1
v 0.2 0.9 -0.2
v 0.2 1 5.96046e-008
v 0.2 1 -0.1
v 0.2 1 -0.2
v 0.2 1.1 5.96046e-008
v 0.2 1.1 -0.1
v 0.2 1.1 -0.2
v 0.2 1.2 5.96046e-008
v 0.2 1.2 -0.1
v 0.2 1.2 -0.2
v 0.2 1.3 5.96046e-008
v 0.2 1.3 -0.1
v 0.2 1.3 -0.2
v 0.2 1.4 0.3
v 0.2 1.4 0.2
v 0.2 1.4 5.96046e-008
v 0.2 1.4 -0.1
v 0.2 1.4 -0.2
v 0.2 1.5 0.4
v 0.2 1.5 0.3
v 0.2 1.5 0.2
v 0.2 1.5 5.96046e-008
v 0.2 1.5 -0.1
v 0.2 1.5 -0.2
v 0.2 1.6 0.5
v 0.2 1.6 0.4
v 0.2 1.6 0.3
v 0.2 1.6 0.2
v 0.2 1.6 5.96046e-008
v 0.2 1.6 -0.1
v 0.2 1.7 -0.1
v 0.2 1.7 -0.2
v 0.2 1.8 0.6
v 0.2 1.8 0.5
v 0.2 1.8 5.96046e-008
v 0.2 1.8 -0.1
v 0.2 1.8 -0.2
v 0.2 1.9 0.5
v 0.2 1.9 0.4
v 0.2 1.9 0.2
v 0.2 1.9 0.1
v 0.2 1.9 5.96046e-008
v 0.2 1.9 -0.1
v 0.2 1.9 -0.2
v 0.2 2 0.2
v 0.2 2 0.1
v 0.2 2 5.96046e-008
v 0.2 2 -0.1
v 0.2 2 -0.2
v 0.2 2 -0.4
v 0.2 2.1 0.5
v 0.2 2.1 0.4
v 0.2 2.1 0.1
v 0.2 2.1 5.96046e-008
v 0.2 2.1 -0.2
v 0.2 2.1 -0.4
v 0.2 2.1 -0.5
v 0.2 2.2 0.6
v 0.2 2.2 0.5
v 0.2 2.2 0.1
v 0.2 2.2 5.96046e-008
v 0.2 2.2 -0.1
v 0.2 2.2 -0.2
v 0.2 2.2 -0.5
v 0.2 2.3 0.5
v 0.2 2.3 0.4
v 0.2 2.3 0.3
v 0.2 2.3 0.2
v 0.2 2.3 0.1
v 0.2 2.3 5.96046e-008
v 0.2 2.3 -0.1
v 0.2 2.3 -0.2
v 0.2 2.4 0.4
v 0.2 2.4 0.3
v 0.2 2.4 0.2
v 0.2 2.4 0.1
v 0.2 2.4 5.96046e-008
v 0.2 2.4 -0.1
v 0.2 2.4 -0.2
v 0.2 2.5 0.3
v 0.2 2.5 0.2
v 0.2 2.5 0.1
v 0.2 2.5 -0.1
v 0.2 2.5 -0.2
v 0.3 2 5.96046e-008
v 0.3 2 -0.2
v 0.3 2.1 5.96046e-008
v 0.3 2.1 -0.2
v 0.3 2.2 5.96046e-008
v 0.3 2.2 -0.2
v 0 1.8 0.6
v 0 2.2 0.6
v 0.2 1.8 0.6
v 0.2 2.2 0.6
v 0 1.6 0.5
v 0 1.8 0.5
v 0 2.2 0.5
v 0 2.3 0.5
v 0.2 1.6 0.5
v 0.2 1.8 0.5
v 0.2 2.2 0.5
v 0.2 2.3 0.5
v 0 1.5 0.4
v 0 1.6 0.4
v 0 2.3 0.4
v 0 2.4 0.4
v 0.2 1.5 0.4
v 0.2 1.6 0.4
v 0.2 2.3 0.4
v 0.2 2.4 0.4
v 0 1.4 0.3
v 0 1.5 0.3
v 0 2.4 0.3
v 0 2.5 0.3
v 0.2 1.4 0.3
v 0.2 1.5 0.3
v 0.2 2.4 0.3
v 0.2 2.5 0.3
v -0.1 2 5.96046e-008
v -0.1 2.1 5.96046e-008
v -0.1 2.2 5.96046e-008
v 0 0.2 5.96046e-008
v 0 0.3 5.96046e-008
v 0 0.4 5.96046e-008
v 0 0.5 5.96046e-008
v 0 0.6 5.96046e-008
v 0 0.7 5.96046e-008
v 0 0.8 5.96046e-008
v 0 0.9 5.96046e-008
v 0 1 5.96046e-008
v 0 1.1 5.96046e-008
v 0 1.2 5.96046e-008
v 0 1.3 5.96046e-008
v 0 1.4 5.96046e-008
v 0 1.5 5.96046e-008
v 0 1.6 5.96046e-008
v 0 1.8 5.96046e-008
v 0 1.9 5.96046e-008
v 0 2 5.96046e-008
v 0 2.1 5.96046e-008
v 0 2.2 5.96046e-008
v 0 2.3 5.96046e-008
v 0 2.4 5.96046e-008
v 0.1 0.6 5.96046e-008
v 0.1 0.7 5.96046e-008
v 0.1 0.8 5.96046e-008
v 0.1 0.9 5.96046e-008
v 0.1 1 5.96046e-008
v 0.1 1.1 5.96046e-008
v 0.1 1.2 5.96046e-008
v 0.1 1.3 5.96046e-008
v 0.1 1.4 5.96046e-008
v 0.1 1.5 5.96046e-008
v 0.2 0.2 5.96046e-008
v 0.2 0.3 5.96046e-008
v 0.2 0.4 5.96046e-008
v 0.2 0.5 5.96046e-008
v 0.2 0.6 5.96046e-008
v 0.2 0.7 5.96046e-008
v 0.2 0.9 5.96046e-008
v 0.2 1 5.96046e-008
v 0.2 1.1 5.96046e-008
v 0.2 1.2 5.96046e-008
v 0.2 1.3 5.96046e-008
v 0.2 1.4 5.96046e-008
v 0.2 1.5 5.96046e-008
v 0.2 1.6 5.96046e-008
v 0.2 1.8 5.96046e-008
v 0.2 1.9 5.96046e-008
v 0.2 2 5.96046e-008
v 0.2 2.1 5.96046e-008
v 0.2 2.2 5.96046e-008
v 0.2 2.3 5.96046e-008
v 0.2 2.4 5.96046e-008
v 0.3 2 5.96046e-008
v 0.3 2.1 5.96046e-008
v 0.3 2.2 5.96046e-008
v 0 2.4 -0.1
v 0 2.5 -0.1
v 0.2 2.4 -0.1
v 0.2 2.5 -0.1
v 0 1.4 0.2
v 0 1.5 0.2
v 0 1.6 0.2
v 0 1.9 0.2
v 0.2 1.4 0.2
v 0.2 1.5 0.2
v 0.2 1.6 0.2
v 0.2 1.9 0.2
v 0 1.9 0.1
v 0 2 0.1
v 0 2.2 0.1
v 0 2.3 0.1
v 0 2.4 0.1
v 0 2.5 0.1
v 0.2 1.9 0.1
v 0.2 2 0.1
v 0.2 2.2 0.1
v 0.2 2.3 0.1
v 0.2 2.4 0.1
v 0.2 2.5 0.1
v -0.1 2 -0.2
v -0.1 2.1 -0.2
v -0.1 2.2 -0.2
v 0 0.2 -0.2
v 0 0.3 -0.2
v 0 0.4 -0.2
v 0 0.5 -0.2
v 0 0.6 -0.2
v 0 0.7 -0.2
v 0 0.8 -0.2
v 0 0.9 -0.2
v 0 1 -0.2
v 0 1.1 -0.2
v 0 1.2 -0.2
v 0 1.4 -0.2
v 0 1.5 -0.2
v 0 1.7 -0.2
v 0 1.8 -0.2
v 0 1.9 -0.2
v 0 2 -0.2
v 0 2.1 -0.2
v 0 2.2 -0.2
v 0 2.3 -0.2
v 0 2.4 -0.2
v 0 2.5 -0.2
v 0.1 0.4 -0.2
v 0.1 0.5 -0.2
v 0.1 0.6 -0.2
v 0.1 0.7 -0.2
v 0.1 0.8 -0.2
v 0.1 0.9 -0.2
v 0.1 1 -0.2
v 0.1 1.1 -0.2
v 0.1 1.2 -0.2
v 0.1 1.3 -0.2
v 0.2 0.2 -0.2
v 0.2 0.3 -0.2
v 0.2 0.4 -0.2
v 0.2 0.5 -0.2
v 0.2 0.6 -0.2
v 0.2 0.7 -0.2
v 0.2 0.8 -0.2
v 0.2 0.9 -0.2
v 0.2 1 -0.2
v 0.2 1.1 -0.2
v 0.2 1.2 -0.2
v 0.2 1.3 -0.2
v 0.2 1.4 -0.2
v 0.2 1.5 -0.2
v 0.2 1.7 -0.2
v 0.2 1.8 -0.2
v 0.2 1.9 -0.2
v 0.2 2 -0.2
v 0.2 2.1 -0.2
v 0.2 2.2 -0.2
v 0.2 2.3 -0.2
v 0.2 2.4 -0.2
v 0.2 2.5 -0.2
v 0.3 2 -0.2
v 0.3 2.1 -0.2
v 0.3 2.2 -0.2
v 0 2 -0.4
v 0 2.1 -0.4
v 0.2 2 -0.4
v 0.2 2.1 -0.4
v 0 2.1 -0.5
v 0 2.2 -0.5
v 0.2 2.1 -0.5
v 0.2 2.2 -0.5
v 0 0.2 5.96046e-008
v 0.2 0.2 5.96046e-008
v 0 0.2 -0.1
v 0.2 0.2 -0.1
v 0 0.2 -0.2
v 0.2 0.2 -0.2
v 0 1.4 0.3
v 0.2 1.4 0.3
v 0 1.4 0.2
v 0.2 1.4 0.2
v 0 1.5 0.4
v 0.2 1.5 0.4
v 0 1.5 0.3
v 0.2 1.5 0.3
v 0 1.6 0.5
v 0.2 1.6 0.5
v 0 1.6 0.4
v 0.2 1.6 0.4
v 0 1.8 0.6
v 0.2 1.8 0.6
v 0 1.8 0.5
v 0.2 1.8 0.5
v 0 1.9 0.2
v 0.2 1.9 0.2
v 0 1.9 0.1
v 0.2 1.9 0.1
v 0 2 0.1
v 0.2 2 0.1
v -0.1 2 5.96046e-008
v 0 2 5.96046e-008
v 0.2 2 5.96046e-008
v 0.3 2 5.96046e-008
v 0 2 -0.1
v 0.2 2 -0.1
v -0.1 2 -0.2
v 0 2 -0.2
v 0.2 2 -0.2
v 0.3 2 -0.2
v 0 2 -0.4
v 0.2 2 -0.4
v 0 2.1 -0.4
v 0.2 2.1 -0.4
v 0 2.1 -0.5
v 0.2 2.1 -0.5
v 0 2.2 0.6
v 0.2 2.2 0.6
v 0 2.2 0.5
v 0.2 2.2 0.5
v 0 2.2 0.1
v 0.2 2.2 0.1
v -0.1 2.2 5.96046e-008
v 0 2.2 5.96046e-008
v 0.2 2.2 5.96046e-008
v 0.3 2.2 5.96046e-008
v 0 2.2 -0.1
v 0.2 2.2 -0.1
v -0.1 2.2 -0.2
v 0 2.2 -0.2
v 0.2 2.2 -0.2
v 0.3 2.2 -0.2
v 0 2.2 -0.5
v 0.2 2.2 -0.5
v 0 2.3 0.5
v 0.2 2.3 0.5
v 0 2.3 0.4
v 0.2 2.3 0.4
v 0 2.4 0.4
v 0.2 2.4 0.4
v 0 2.4 0.3
v 0.2 2.4 0.3
v 0 2.4 5.96046e-008
v 0.2 2.4 5.96046e-008
v 0 2.4 -0.1
v 0.2 2.4 -0.1
v 0 2.5 0.3
v 0.2 2.5 0.3
v 0 2.5 0.2
v 0.2 2.5 0.2
v 0 2.5 0.1
v 0.2 2.5 0.1
v 0 2.5 -0.1
v 0.2 2.5 -0.1
v 0 2.5 -0.2
v 0.2 2.5 -0.2

# faces
f 3/2/1 2/2/1 1/2/1
f 4/2/1 2/2/1 3/2/1
f 5/1/1 4/1/1 3/1/1
f 6/1/1 4/1/1 5/1/1
f 10/1/1 8/1/1 7/1/1
f 11/2/1 9/2/1 8/2/1
f 11/1/1 8/1/1 10/1/1
f 12/2/1 9/2/1 11/2/1
f 13/2/1 11/2/1 10/2/1
f 14/1/1 12/1/1 11/1/1
f 14/2/1 11/2/1 13/2/1
f 15/1/1 12/1/1 14/1/1
f 16/5/1 14/5/1 13/5/1
f 16/5/1 15/5/1 14/5/1
f 17/5/1 15/5/1 16/5/1
f 18/7/1 17/7/1 16/7/1
f 19/7/1 17/7/1 18/7/1
f 20/7/1 17/7/1 19/7/1
f 21/6/1 19/6/1 18/6/1
f 22/5/1 20/5/1 19/5/1
f 22/6/1 19/6/1 21/6/1
f 23/5/1 20/5/1 22/5/1
f 24/5/1 22/5/1 21/5/1
f 25/7/1 23/7/1 22/7/1
f 25/5/1 22/5/1 24/5/1
f 26/7/1 23/7/1 25/7/1
f 27/7/1 25/7/1 24/7/1
f 28/6/1 26/6/1 25/6/1
f 28/7/1 25/7/1 27/7/1
f 29/6/1 26/6/1 28/6/1
f 30/6/1 28/6/1 27/6/1
f 31/5/1 29/5/1 28/5/1
f 31/6/1 28/6/1 30/6/1
f 32/5/1 29/5/1 31/5/1
f 33/5/1 31/5/1 30/5/1
f 34/7/1 32/7/1 31/7/1
f 34/5/1 31/5/1 33/5/1
f 35/7/1 32/7/1 34/7/1
f 36/7/1 34/7/1 33/7/1
f 37/5/1 35/5/1 34/5/1
f 37/7/1 34/7/1 36/7/1
f 38/5/1 35/5/1 37/5/1
f 39/5/1 37/5/1 36/5/1
f 40/6/1 38/6/1 37/6/1
f 40/5/1 37/5/1 39/5/1
f 43/7/1 40/7/1 39/7/1
f 44/6/1 38/6/1 40/6/1
f 44/7/1 40/7/1 43/7/1
f 45/6/1 38/6/1 44/6/1
f 47/4/1 42/4/1 41/4/1
f 48/4/1 42/4/1 47/4/1
f 49/5/1 44/5/1 43/5/1
f 50/7/1 45/7/1 44/7/1
f 50/5/1 44/5/1 49/5/1
f 51/7/1 45/7/1 50/7/1
f 53/4/1 47/4/1 46/4/1
f 54/3/1 48/3/1 47/3/1
f 54/4/1 47/4/1 53/4/1
f 55/3/1 48/3/1 54/3/1
f 56/6/1 50/6/1 49/6/1
f 57/5/1 51/5/1 50/5/1
f 57/6/1 50/6/1 56/6/1
f 58/5/1 57/5/1 56/5/1
f 58/5/1 51/5/1 57/5/1
f 59/5/1 51/5/1 58/5/1
f 61/4/1 53/4/1 52/4/1
f 62/5/1 58/5/1 56/5/1
f 63/6/1 59/6/1 58/6/1
f 63/5/1 58/5/1 62/5/1
f 64/6/1 59/6/1 63/6/1
f 65/2/1 55/2/1 54/2/1
f 67/6/1 63/6/1 62/6/1
f 68/5/1 64/5/1 63/5/1
f 68/6/1 63/6/1 67/6/1
f 69/5/1 64/5/1 68/5/1
f 70/2/1 66/2/1 65/2/1
f 70/2/1 65/2/1 54/2/1
f 71/2/1 66/2/1 70/2/1
f 72/7/1 68/7/1 67/7/1
f 73/6/1 69/6/1 68/6/1
f 73/7/1 68/7/1 72/7/1
f 74/6/1 69/6/1 73/6/1
f 76/1/1 71/1/1 70/1/1
f 76/2/1 72/2/1 71/2/1
f 77/2/1 72/2/1 76/2/1
f 78/2/1 75/2/1 74/2/1
f 79/2/1 75/2/1 78/2/1
f 81/4/1 61/4/1 60/4/1
f 82/4/1 53/4/1 61/4/1
f 82/4/1 61/4/1 81/4/1
f 83/1/1 77/1/1 76/1/1
f 83/1/1 76/1/1 70/1/1
f 84/1/1 77/1/1 83/1/1
f 86/1/1 80/1/1 79/1/1
f 86/1/1 79/1/1 78/1/1
f 87/1/1 80/1/1 86/1/1
f 88/4/1 53/4/1 82/4/1
f 89/3/1 54/3/1 53/3/1
f 89/4/1 53/4/1 88/4/1
f 90/2/1 70/2/1 54/2/1
f 90/3/1 54/3/1 89/3/1
f 91/1/1 83/1/1 70/1/1
f 91/2/1 70/2/1 90/2/1
f 92/1/1 83/1/1 91/1/1
f 93/5/1 85/5/1 84/5/1
f 94/6/1 86/6/1 85/6/1
f 94/5/1 85/5/1 93/5/1
f 95/6/1 86/6/1 94/6/1
f 96/4/1 90/4/1 89/4/1
f 97/3/1 91/3/1 90/3/1
f 97/4/1 90/4/1 96/4/1
f 98/2/1 92/2/1 91/2/1
f 98/3/1 91/3/1 97/3/1
f 99/2/1 92/2/1 98/2/1
f 100/1/1 94/1/1 93/1/1
f 101/2/1 95/2/1 94/2/1
f 101/1/1 94/1/1 100/1/1
f 102/2/1 95/2/1 101/2/1
f 103/4/1 98/4/1 97/4/1
f 104/3/1 99/3/1 98/3/1
f 104/4/1 98/4/1 103/4/1
f 105/3/1 99/3/1 104/3/1
f 106/1/1 102/1/1 101/1/1
f 107/1/1 102/1/1 106/1/1
f 108/1/2 109/1/2 111/1/2
f 109/2/2 110/2/2 112/2/2
f 111/1/2 109/1/2 112/1/2
f 112/2/2 110/2/2 113/2/2
f 111/2/2 112/2/2 114/2/2
f 112/1/2 113/1/2 115/1/2
f 114/2/2 112/2/2 115/2/2
f 115/1/2 113/1/2 116/1/2
f 114/5/2 115/5/2 117/5/2
f 115/7/2 116/7/2 118/7/2
f 117/5/2 115/5/2 118/5/2
f 118/7/2 116/7/2 119/7/2
f 117/7/2 118/7/2 120/7/2
f 118/5/2 119/5/2 121/5/2
f 120/7/2 118/7/2 121/7/2
f 121/5/2 119/5/2 122/5/2
f 120/5/2 121/5/2 123/5/2
f 121/7/2 122/7/2 124/7/2
f 123/5/2 121/5/2 124/5/2
f 124/7/2 122/7/2 125/7/2
f 123/7/2 124/7/2 126/7/2
f 124/5/2 125/5/2 126/5/2
f 126/5/2 125/5/2 127/5/2
f 123/7/2 126/7/2 128/7/2
f 126/6/2 127/6/2 129/6/2
f 128/7/2 126/7/2 129/7/2
f 129/6/2 127/6/2 130/6/2
f 128/5/2 129/5/2 131/5/2
f 129/7/2 130/7/2 132/7/2
f 131/5/2 129/5/2 132/5/2
f 132/7/2 130/7/2 133/7/2
f 131/7/2 132/7/2 134/7/2
f 132/5/2 133/5/2 135/5/2
f 134/7/2 132/7/2 135/7/2
f 135/5/2 133/5/2 136/5/2
f 134/5/2 135/5/2 137/5/2
f 135/7/2 136/7/2 138/7/2
f 137/5/2 135/5/2 138/5/2
f 138/7/2 136/7/2 139/7/2
f 137/7/2 138/7/2 140/7/2
f 138/5/2 139/5/2 141/5/2
f 140/7/2 138/7/2 141/7/2
f 141/5/2 139/5/2 142/5/2
f 140/5/2 141/5/2 145/5/2
f 141/6/2 142/6/2 146/6/2
f 145/5/2 141/5/2 146/5/2
f 146/6/2 142/6/2 147/6/2
f 143/4/2 144/4/2 149/4/2
f 149/4/2 144/4/2 150/4/2
f 145/7/2 146/7/2 151/7/2
f 146/7/2 147/7/2 151/7/2
f 151/7/2 147/7/2 152/7/2
f 152/7/2 147/7/2 153/7/2
f 148/4/2 149/4/2 155/4/2
f 149/3/2 150/3/2 156/3/2
f 155/4/2 149/4/2 156/4/2
f 156/3/2 150/3/2 157/3/2
f 151/6/2 152/6/2 158/6/2
f 152/5/2 153/5/2 159/5/2
f 158/6/2 152/6/2 159/6/2
f 158/5/2 159/5/2 160/5/2
f 159/5/2 153/5/2 160/5/2
f 160/5/2 153/5/2 161/5/2
f 154/4/2 155/4/2 163/4/2
f 158/5/2 160/5/2 164/5/2
f 160/6/2 161/6/2 165/6/2
f 164/5/2 160/5/2 165/5/2
f 165/6/2 161/6/2 166/6/2
f 162/4/2 163/4/2 167/4/2
f 163/4/2 155/4/2 167/4/2
f 155/3/2 156/3/2 168/3/2
f 167/4/2 155/4/2 168/4/2
f 156/2/2 157/2/2 169/2/2
f 164/6/2 165/6/2 171/6/2
f 165/5/2 166/5/2 172/5/2
f 171/6/2 165/6/2 172/6/2
f 172/5/2 166/5/2 173/5/2
f 169/2/2 170/2/2 174/2/2
f 156/2/2 169/2/2 174/2/2
f 174/2/2 170/2/2 175/2/2
f 171/7/2 172/7/2 176/7/2
f 172/6/2 173/6/2 177/6/2
f 176/7/2 172/7/2 177/7/2
f 177/6/2 173/6/2 178/6/2
f 167/3/2 168/3/2 180/3/2
f 162/4/2 167/4/2 180/4/2
f 168/3/2 156/3/2 181/3/2
f 180/3/2 168/3/2 181/3/2
f 174/1/2 175/1/2 182/1/2
f 175/2/2 176/2/2 182/2/2
f 182/2/2 176/2/2 183/2/2
f 178/2/2 179/2/2 184/2/2
f 184/2/2 179/2/2 185/2/2
f 180/4/2 181/4/2 187/4/2
f 162/4/2 180/4/2 187/4/2
f 187/4/2 181/4/2 188/4/2
f 182/1/2 183/1/2 189/1/2
f 174/1/2 182/1/2 189/1/2
f 189/1/2 183/1/2 190/1/2
f 185/1/2 186/1/2 192/1/2
f 184/1/2 185/1/2 192/1/2
f 192/1/2 186/1/2 193/1/2
f 188/4/2 181/4/2 194/4/2
f 181/3/2 156/3/2 195/3/2
f 194/4/2 181/4/2 195/4/2
f 156/2/2 174/2/2 196/2/2
f 195/3/2 156/3/2 196/3/2
f 174/1/2 189/1/2 197/1/2
f 196/2/2 174/2/2 197/2/2
f 197/1/2 189/1/2 198/1/2
f 190/5/2 191/5/2 199/5/2
f 191/6/2 192/6/2 200/6/2
f 199/5/2 191/5/2 200/5/2
f 200/6/2 192/6/2 201/6/2
f 195/4/2 196/4/2 202/4/2
f 196/3/2 197/3/2 203/3/2
f 202/4/2 196/4/2 203/4/2
f 197/2/2 198/2/2 204/2/2
f 203/3/2 197/3/2 204/3/2
f 204/2/2 198/2/2 205/2/2
f 199/1/2 200/1/2 206/1/2
f 200/2/2 201/2/2 207/2/2
f 206/1/2 200/1/2 207/1/2
f 207/2/2 201/2/2 208/2/2
f 203/4/2 204/4/2 209/4/2
f 204/3/2 205/3/2 210/3/2
f 209/4/2 204/4/2 210/4/2
f 210/3/2 205/3/2 211/3/2
f 207/1/2 208/1/2 212/1/2
f 212/1/2 208/1/2 213/1/2
f 214/2/2 215/2/2 216/2/2
f 216/2/2 215/2/2 217/2/2
f 216/1/2 217/1/2 218/1/2
f 218/1/2 217/1/2 219/1/2
f 222/4/3 221/4/3 220/4/3
f 223/4/3 221/4/3 222/4/3
f 228/4/3 225/4/3 224/4/3
f 229/4/3 225/4/3 228/4/3
f 230/4/3 227/4/3 226/4/3
f 231/4/3 227/4/3 230/4/3
f 236/4/3 233/4/3 232/4/3
f 237/4/3 233/4/3 236/4/3
f 238/4/3 235/4/3 234/4/3
f 239/4/3 235/4/3 238/4/3
f 244/4/3 241/4/3 240/4/3
f 245/4/3 241/4/3 244/4/3
f 246/4/3 243/4/3 242/4/3
f 247/4/3 243/4/3 246/4/3
f 268/2/3 249/2/3 248/2/3
f 269/1/3 250/1/3 249/1/3
f 269/2/3 249/2/3 268/2/3
f 270/1/3 250/1/3 269/1/3
f 273/7/3 255/7/3 254/7/3
f 273/6/3 256/6/3 255/6/3
f 274/5/3 257/5/3 256/5/3
f 274/6/3 256/6/3 273/6/3
f 275/7/3 258/7/3 257/7/3
f 275/5/3 257/5/3 274/5/3
f 276/6/3 259/6/3 258/6/3
f 276/7/3 258/7/3 275/7/3
f 277/5/3 260/5/3 259/5/3
f 277/6/3 259/6/3 276/6/3
f 278/7/3 261/7/3 260/7/3
f 278/5/3 260/5/3 277/5/3
f 279/5/3 262/5/3 261/5/3
f 279/7/3 261/7/3 278/7/3
f 280/7/3 263/7/3 262/7/3
f 280/5/3 262/5/3 279/5/3
f 281/5/3 264/5/3 263/5/3
f 281/7/3 263/7/3 280/7/3
f 282/6/3 265/6/3 264/6/3
f 282/5/3 264/5/3 281/5/3
f 283/1/3 252/1/3 251/1/3
f 284/2/3 253/2/3 252/2/3
f 284/1/3 252/1/3 283/1/3
f 285/5/3 254/5/3 253/5/3
f 285/2/3 253/2/3 284/2/3
f 286/7/3 273/7/3 254/7/3
f 286/5/3 254/5/3 285/5/3
f 287/5/3 274/5/3 273/5/3
f 287/7/3 273/7/3 286/7/3
f 288/7/3 275/7/3 274/7/3
f 288/5/3 274/5/3 287/5/3
f 288/7/3 276/7/3 275/7/3
f 289/5/3 277/5/3 276/5/3
f 289/7/3 276/7/3 288/7/3
f 290/7/3 278/7/3 277/7/3
f 290/5/3 277/5/3 289/5/3
f 291/5/3 279/5/3 278/5/3
f 291/7/3 278/7/3 290/7/3
f 292/7/3 280/7/3 279/7/3
f 292/5/3 279/5/3 291/5/3
f 293/5/3 281/5/3 280/5/3
f 293/7/3 280/7/3 292/7/3
f 294/7/3 282/7/3 281/7/3
f 294/5/3 281/5/3 293/5/3
f 295/6/3 265/6/3 282/6/3
f 295/7/3 282/7/3 294/7/3
f 296/5/3 266/5/3 265/5/3
f 296/6/3 265/6/3 295/6/3
f 297/6/3 267/6/3 266/6/3
f 297/5/3 266/5/3 296/5/3
f 298/7/3 268/7/3 267/7/3
f 298/6/3 267/6/3 297/6/3
f 299/7/3 268/7/3 298/7/3
f 301/5/3 271/5/3 270/5/3
f 302/1/3 272/1/3 271/1/3
f 302/5/3 271/5/3 301/5/3
f 303/1/3 272/1/3 302/1/3
f 304/2/3 300/2/3 299/2/3
f 305/1/3 301/1/3 300/1/3
f 305/2/3 300/2/3 304/2/3
f 306/1/3 301/1/3 305/1/3
f 309/1/3 308/1/3 307/1/3
f 310/1/3 308/1/3 309/1/3
f 311/4/4 312/4/4 315/4/4
f 312/3/4 313/3/4 316/3/4
f 315/4/4 312/4/4 316/4/4
f 313/2/4 314/2/4 317/2/4
f 316/3/4 313/3/4 317/3/4
f 317/2/4 314/2/4 318/2/4
f 319/2/4 320/2/4 325/2/4
f 325/2/4 320/2/4 326/2/4
f 321/1/4 322/1/4 327/1/4
f 322/2/4 323/2/4 328/2/4
f 327/1/4 322/1/4 328/1/4
f 323/3/4 324/3/4 329/3/4
f 328/2/4 323/2/4 329/2/4
f 329/3/4 324/3/4 330/3/4
f 331/2/4 332/2/4 350/2/4
f 332/1/4 333/1/4 351/1/4
f 350/2/4 332/2/4 351/2/4
f 351/1/4 333/1/4 352/1/4
f 335/1/4 336/1/4 356/1/4
f 336/5/4 337/5/4 356/5/4
f 337/7/4 338/7/4 357/7/4
f 356/5/4 337/5/4 357/5/4
f 338/5/4 339/5/4 358/5/4
f 357/7/4 338/7/4 358/7/4
f 339/7/4 340/7/4 359/7/4
f 358/5/4 339/5/4 359/5/4
f 340/6/4 341/6/4 360/6/4
f 359/7/4 340/7/4 360/7/4
f 341/5/4 342/5/4 361/5/4
f 360/6/4 341/6/4 361/6/4
f 342/7/4 343/7/4 362/7/4
f 361/5/4 342/5/4 362/5/4
f 343/5/4 344/5/4 363/5/4
f 362/7/4 343/7/4 363/7/4
f 344/6/4 345/6/4 364/6/4
f 363/5/4 344/5/4 364/5/4
f 364/6/4 345/6/4 365/6/4
f 334/2/4 335/2/4 366/2/4
f 335/1/4 356/1/4 367/1/4
f 366/2/4 335/2/4 367/2/4
f 356/7/4 357/7/4 368/7/4
f 367/1/4 356/1/4 368/1/4
f 357/5/4 358/5/4 369/5/4
f 368/7/4 357/7/4 369/7/4
f 358/7/4 359/7/4 370/7/4
f 369/5/4 358/5/4 370/5/4
f 359/5/4 360/5/4 371/5/4
f 370/7/4 359/7/4 371/7/4
f 360/6/4 361/6/4 372/6/4
f 371/5/4 360/5/4 372/5/4
f 361/7/4 362/7/4 373/7/4
f 372/6/4 361/6/4 373/6/4
f 362/5/4 363/5/4 374/5/4
f 373/7/4 362/7/4 374/7/4
f 363/7/4 364/7/4 375/7/4
f 374/5/4 363/5/4 375/5/4
f 364/5/4 365/5/4 376/5/4
f 375/7/4 364/7/4 376/7/4
f 365/6/4 345/6/4 377/6/4
f 376/5/4 365/5/4 377/5/4
f 345/7/4 346/7/4 378/7/4
f 377/6/4 345/6/4 378/6/4
f 346/5/4 347/5/4 379/5/4
f 378/7/4 346/7/4 379/7/4
f 347/6/4 348/6/4 380/6/4
f 379/5/4 347/5/4 380/5/4
f 348/5/4 349/5/4 381/5/4
f 380/6/4 348/6/4 381/6/4
f 349/6/4 350/6/4 382/6/4
f 381/5/4 349/5/4 382/5/4
f 382/6/4 350/6/4 383/6/4
f 352/6/4 353/6/4 385/6/4
f 353/2/4 354/2/4 386/2/4
f 385/6/4 353/6/4 386/6/4
f 354/1/4 355/1/4 387/1/4
f 386/2/4 354/2/4 387/2/4
f 387/1/4 355/1/4 388/1/4
f 383/2/4 384/2/4 389/2/4
f 384/1/4 385/1/4 390/1/4
f 389/2/4 384/2/4 390/2/4
f 390/1/4 385/1/4 391/1/4
f 392/2/4 393/2/4 394/2/4
f 394/2/4 393/2/4 395/2/4
f 396/1/4 397/1/4 398/1/4
f 398/1/4 397/1/4 399/1/4
f 402/1/5 401/1/5 400/1/5
f 403/1/5 401/1/5 402/1/5
f 404/2/5 403/2/5 402/2/5
f 405/2/5 403/2/5 404/2/5
f 408/4/5 407/4/5 406/4/5
f 409/4/5 407/4/5 408/4/5
f 412/4/5 411/4/5 410/4/5
f 413/4/5 411/4/5 412/4/5
f 416/4/5 415/4/5 414/4/5
f 417/4/5 415/4/5 416/4/5
f 420/4/5 419/4/5 418/4/5
f 421/4/5 419/4/5 420/4/5
f 424/2/5 423/2/5 422/2/5
f 425/2/5 423/2/5 424/2/5
f 429/2/5 427/2/5 426/2/5
f 430/2/5 427/2/5 429/2/5
f 432/2/5 429/2/5 428/2/5
f 433/2/5 431/2/5 430/2/5
f 434/2/5 432/2/5 428/2/5
f 435/2/5 432/2/5 434/2/5
f 436/2/5 431/2/5 433/2/5
f 437/2/5 431/2/5 436/2/5
f 438/2/5 436/2/5 435/2/5
f 439/2/5 436/2/5 438/2/5
f 442/1/5 441/1/5 440/1/5
f 443/1/5 441/1/5 442/1/5
f 444/4/6 445/4/6 446/4/6
f 446/4/6 445/4/6 447/4/6
f 448/1/6 449/1/6 451/1/6
f 451/1/6 449/1/6 452/1/6
f 450/1/6 451/1/6 454/1/6
f 452/1/6 453/1/6 455/1/6
f 450/1/6 454/1/6 456/1/6
f 456/1/6 454/1/6 457/1/6
f 455/1/6 453/1/6 458/1/6
f 458/1/6 453/1/6 459/1/6
f 457/1/6 458/1/6 460/1/6
f 460/1/6 458/1/6 461/1/6
f 462/4/6 463/4/6 464/4/6
f 464/4/6 463/4/6 465/4/6
f 466/4/6 467/4/6 468/4/6
f 468/4/6 467/4/6 469/4/6
f 470/1/6 471/1/6 472/1/6
f 472/1/6 471/1/6 473/1/6
f 474/4/6 475/4/6 476/4/6
f 476/4/6 475/4/6 477/4/6
f 476/3/6 477/3/6 478/3/6
f 478/3/6 477/3/6 479/3/6
f 480/1/6 481/1/6 482/1/6
f 482/1/6 481/1/6 483/1/6
