# MagicaVoxel @ Ephtracy

# group
o 

# material
mtllib chest.mtl
usemtl palette

# normals
vn -1 0 0
vn 1 0 0
vn 0 0 1
vn 0 0 -1
vn 0 -1 0
vn 0 1 0

# texcoords
vt 0.00195313 0.5
vt 0.0175781 0.5
vt 0.470703 0.5
vt 0.474609 0.5
vt 0.478516 0.5
vt 0.482422 0.5
vt 0.509766 0.5
vt 0.513672 0.5
vt 0.537109 0.5
vt 0.541016 0.5
vt 0.544922 0.5
vt 0.564453 0.5
vt 0.568359 0.5
vt 0.572266 0.5

# verts
v -0.7 0.3 0.1
v -0.7 0.3 -0.2
v -0.7 0.4 0.1
v -0.7 0.4 -0.2
v -0.7 0.5 0.1
v -0.7 0.5 -0.2
v -0.6 0.5 0.1
v -0.6 0.5 -0.2
v -0.6 0.6 0.1
v -0.6 0.6 -0.2
v -0.5 0.2 0.1
v -0.5 0.2 0
v -0.5 0.2 -0.1
v -0.5 0.2 -0.2
v -0.5 0.3 0.2
v -0.5 0.3 0.1
v -0.5 0.3 0
v -0.5 0.3 -0.1
v -0.5 0.3 -0.2
v -0.5 0.3 -0.3
v -0.5 0.4 0.2
v -0.5 0.4 0.1
v -0.5 0.4 -0.2
v -0.5 0.4 -0.3
v -0.5 0.5 0.2
v -0.5 0.5 0.1
v -0.5 0.5 -0.2
v -0.5 0.5 -0.3
v -0.5 0.6 0.2
v -0.5 0.6 0.1
v -0.5 0.6 -0.2
v -0.5 0.6 -0.3
v -0.4 0.1 0.2
v -0.4 0.1 -0.3
v -0.4 0.2 0.2
v -0.4 0.2 0.1
v -0.4 0.2 0
v -0.4 0.2 -0.1
v -0.4 0.2 -0.2
v -0.4 0.2 -0.3
v -0.4 0.3 0.3
v -0.4 0.3 0.2
v -0.4 0.3 0.1
v -0.4 0.3 -0.2
v -0.4 0.3 -0.3
v -0.4 0.4 0.2
v -0.4 0.5 0.2
v -0.4 0.6 0.3
v -0.4 0.6 0.2
v -0.4 0.6 0.1
v -0.4 0.6 0
v -0.4 0.6 -0.1
v -0.4 0.6 -0.2
v -0.4 0.7 0.1
v -0.4 0.7 0
v -0.4 0.7 -0.1
v -0.4 0.7 -0.2
v -0.3 0.1 0.3
v -0.3 0.1 0.2
v -0.3 0.1 -0.3
v -0.3 0.1 -0.4
v -0.3 0.2 0.3
v -0.3 0.2 0.2
v -0.3 0.2 -0.3
v -0.3 0.2 -0.4
v -0.3 0.3 0.3
v -0.3 0.3 0.2
v -0.3 0.3 -0.3
v -0.3 0.3 -0.4
v -0.3 0.5 -0.3
v -0.3 0.5 -0.4
v -0.3 0.6 0.2
v -0.3 0.6 0.1
v -0.3 0.6 -0.2
v -0.3 0.6 -0.3
v -0.3 0.6 -0.4
v -0.3 0.7 0.2
v -0.3 0.7 0.1
v -0.3 0.7 -0.2
v -0.3 0.7 -0.3
v -0.3 0.7 -0.4
v -0.2 0.6 0.3
v -0.2 0.6 0.2
v -0.2 0.7 0.3
v -0.2 0.7 0.2
v -0.2 0.7 0.1
v -0.2 0.7 -0.2
v -0.2 1 0.1
v -0.2 1 -0.2
v 0.1 0.4 -0.3
v 0.1 0.4 -0.4
v 0.1 0.5 -0.2
v 0.1 0.5 -0.3
v 0.1 0.5 -0.4
v 0.1 0.6 -0.2
v 0.1 0.6 -0.3
v 0.2 0.5 -0.3
v 0.2 0.5 -0.4
v 0.2 0.6 -0.2
v 0.2 0.6 -0.3
v 0.2 0.6 -0.4
v 0.2 0.7 -0.2
v 0.2 0.7 -0.3
v 0.2 0.7 -0.4
v -0.2 0.5 -0.3
v -0.2 0.5 -0.4
v -0.2 0.6 -0.2
v -0.2 0.6 -0.3
v -0.2 0.6 -0.4
v -0.2 0.7 -0.2
v -0.2 0.7 -0.3
v -0.2 0.7 -0.4
v -0.1 0.4 -0.3
v -0.1 0.4 -0.4
v -0.1 0.5 -0.2
v -0.1 0.5 -0.3
v -0.1 0.5 -0.4
v -0.1 0.6 -0.2
v -0.1 0.6 -0.3
v 0.2 0.6 0.3
v 0.2 0.6 0.2
v 0.2 0.7 0.3
v 0.2 0.7 0.2
v 0.2 0.7 0.1
v 0.2 0.7 -0.2
v 0.2 1 0.1
v 0.2 1 -0.2
v 0.3 0.1 0.3
v 0.3 0.1 0.2
v 0.3 0.1 -0.3
v 0.3 0.1 -0.4
v 0.3 0.2 0.3
v 0.3 0.2 0.2
v 0.3 0.2 -0.3
v 0.3 0.2 -0.4
v 0.3 0.3 0.3
v 0.3 0.3 0.2
v 0.3 0.3 -0.3
v 0.3 0.3 -0.4
v 0.3 0.5 -0.3
v 0.3 0.5 -0.4
v 0.3 0.6 0.2
v 0.3 0.6 0.1
v 0.3 0.6 -0.2
v 0.3 0.6 -0.3
v 0.3 0.6 -0.4
v 0.3 0.7 0.2
v 0.3 0.7 0.1
v 0.3 0.7 -0.2
v 0.3 0.7 -0.3
v 0.3 0.7 -0.4
v 0.4 0.1 0.2
v 0.4 0.1 -0.3
v 0.4 0.2 0.2
v 0.4 0.2 0.1
v 0.4 0.2 0
v 0.4 0.2 -0.1
v 0.4 0.2 -0.2
v 0.4 0.2 -0.3
v 0.4 0.3 0.3
v 0.4 0.3 0.2
v 0.4 0.3 0.1
v 0.4 0.3 -0.2
v 0.4 0.3 -0.3
v 0.4 0.4 0.2
v 0.4 0.5 0.2
v 0.4 0.6 0.3
v 0.4 0.6 0.2
v 0.4 0.6 0.1
v 0.4 0.6 0
v 0.4 0.6 -0.1
v 0.4 0.6 -0.2
v 0.4 0.7 0.1
v 0.4 0.7 0
v 0.4 0.7 -0.1
v 0.4 0.7 -0.2
v 0.5 0.2 0.1
v 0.5 0.2 0
v 0.5 0.2 -0.1
v 0.5 0.2 -0.2
v 0.5 0.3 0.2
v 0.5 0.3 0.1
v 0.5 0.3 0
v 0.5 0.3 -0.1
v 0.5 0.3 -0.2
v 0.5 0.3 -0.3
v 0.5 0.4 0.2
v 0.5 0.4 0.1
v 0.5 0.4 -0.2
v 0.5 0.4 -0.3
v 0.5 0.5 0.2
v 0.5 0.5 0.1
v 0.5 0.5 -0.2
v 0.5 0.5 -0.3
v 0.5 0.6 0.2
v 0.5 0.6 0.1
v 0.5 0.6 -0.2
v 0.5 0.6 -0.3
v 0.6 0.5 0.1
v 0.6 0.5 -0.2
v 0.6 0.6 0.1
v 0.6 0.6 -0.2
v 0.7 0.3 0.1
v 0.7 0.3 -0.2
v 0.7 0.4 0.1
v 0.7 0.4 -0.2
v 0.7 0.5 0.1
v 0.7 0.5 -0.2
v -0.4 0.3 0.3
v -0.4 0.6 0.3
v -0.3 0.1 0.3
v -0.3 0.2 0.3
v -0.3 0.3 0.3
v -0.3 0.6 0.3
v -0.2 0.2 0.3
v -0.2 0.3 0.3
v -0.2 0.4 0.3
v -0.2 0.6 0.3
v -0.2 0.7 0.3
v -0.1 0.4 0.3
v -0.1 0.6 0.3
v -0.1 0.7 0.3
v 0.1 0.4 0.3
v 0.1 0.6 0.3
v 0.1 0.7 0.3
v 0.2 0.2 0.3
v 0.2 0.3 0.3
v 0.2 0.4 0.3
v 0.2 0.6 0.3
v 0.2 0.7 0.3
v 0.3 0.1 0.3
v 0.3 0.2 0.3
v 0.3 0.3 0.3
v 0.3 0.6 0.3
v 0.4 0.3 0.3
v 0.4 0.6 0.3
v -0.5 0.3 0.2
v -0.5 0.4 0.2
v -0.5 0.5 0.2
v -0.5 0.6 0.2
v -0.4 0.1 0.2
v -0.4 0.2 0.2
v -0.4 0.3 0.2
v -0.4 0.4 0.2
v -0.4 0.5 0.2
v -0.4 0.6 0.2
v -0.3 0.1 0.2
v -0.3 0.2 0.2
v -0.3 0.3 0.2
v -0.3 0.6 0.2
v -0.3 0.7 0.2
v -0.2 0.6 0.2
v -0.2 0.7 0.2
v 0.2 0.6 0.2
v 0.2 0.7 0.2
v 0.3 0.1 0.2
v 0.3 0.2 0.2
v 0.3 0.3 0.2
v 0.3 0.6 0.2
v 0.3 0.7 0.2
v 0.4 0.1 0.2
v 0.4 0.2 0.2
v 0.4 0.3 0.2
v 0.4 0.4 0.2
v 0.4 0.5 0.2
v 0.4 0.6 0.2
v 0.5 0.3 0.2
v 0.5 0.4 0.2
v 0.5 0.5 0.2
v 0.5 0.6 0.2
v -0.7 0.3 0.1
v -0.7 0.4 0.1
v -0.7 0.5 0.1
v -0.6 0.5 0.1
v -0.6 0.6 0.1
v -0.5 0.2 0.1
v -0.5 0.3 0.1
v -0.5 0.4 0.1
v -0.5 0.5 0.1
v -0.5 0.6 0.1
v -0.4 0.2 0.1
v -0.4 0.3 0.1
v -0.4 0.6 0.1
v -0.4 0.7 0.1
v -0.3 0.6 0.1
v -0.3 0.7 0.1
v -0.2 0.7 0.1
v -0.2 1 0.1
v 0.2 0.7 0.1
v 0.2 1 0.1
v 0.3 0.6 0.1
v 0.3 0.7 0.1
v 0.4 0.2 0.1
v 0.4 0.3 0.1
v 0.4 0.6 0.1
v 0.4 0.7 0.1
v 0.5 0.2 0.1
v 0.5 0.3 0.1
v 0.5 0.4 0.1
v 0.5 0.5 0.1
v 0.5 0.6 0.1
v 0.6 0.5 0.1
v 0.6 0.6 0.1
v 0.7 0.3 0.1
v 0.7 0.4 0.1
v 0.7 0.5 0.1
v -0.7 0.3 -0.2
v -0.7 0.4 -0.2
v -0.7 0.5 -0.2
v -0.6 0.5 -0.2
v -0.6 0.6 -0.2
v -0.5 0.2 -0.2
v -0.5 0.3 -0.2
v -0.5 0.4 -0.2
v -0.5 0.5 -0.2
v -0.5 0.6 -0.2
v -0.4 0.2 -0.2
v -0.4 0.3 -0.2
v -0.4 0.6 -0.2
v -0.4 0.7 -0.2
v -0.3 0.6 -0.2
v -0.3 0.7 -0.2
v -0.2 0.6 -0.2
v -0.2 0.7 -0.2
v -0.2 1 -0.2
v -0.1 0.5 -0.2
v -0.1 0.6 -0.2
v -0.1 0.7 -0.2
v 0.1 0.5 -0.2
v 0.1 0.6 -0.2
v 0.1 0.7 -0.2
v 0.2 0.6 -0.2
v 0.2 0.7 -0.2
v 0.2 1 -0.2
v 0.3 0.6 -0.2
v 0.3 0.7 -0.2
v 0.4 0.2 -0.2
v 0.4 0.3 -0.2
v 0.4 0.6 -0.2
v 0.4 0.7 -0.2
v 0.5 0.2 -0.2
v 0.5 0.3 -0.2
v 0.5 0.4 -0.2
v 0.5 0.5 -0.2
v 0.5 0.6 -0.2
v 0.6 0.5 -0.2
v 0.6 0.6 -0.2
v 0.7 0.3 -0.2
v 0.7 0.4 -0.2
v 0.7 0.5 -0.2
v -0.5 0.3 -0.3
v -0.5 0.4 -0.3
v -0.5 0.5 -0.3
v -0.5 0.6 -0.3
v -0.4 0.1 -0.3
v -0.4 0.2 -0.3
v -0.4 0.3 -0.3
v -0.4 0.4 -0.3
v -0.4 0.5 -0.3
v -0.4 0.6 -0.3
v -0.3 0.1 -0.3
v -0.3 0.2 -0.3
v -0.3 0.3 -0.3
v -0.3 0.5 -0.3
v -0.3 0.6 -0.3
v -0.2 0.5 -0.3
v -0.2 0.6 -0.3
v -0.1 0.4 -0.3
v -0.1 0.5 -0.3
v -0.1 0.6 -0.3
v 0 0.4 -0.3
v 0.1 0.4 -0.3
v 0.1 0.5 -0.3
v 0.1 0.6 -0.3
v 0.2 0.5 -0.3
v 0.2 0.6 -0.3
v 0.3 0.1 -0.3
v 0.3 0.2 -0.3
v 0.3 0.3 -0.3
v 0.3 0.5 -0.3
v 0.3 0.6 -0.3
v 0.4 0.1 -0.3
v 0.4 0.2 -0.3
v 0.4 0.3 -0.3
v 0.4 0.4 -0.3
v 0.4 0.5 -0.3
v 0.4 0.6 -0.3
v 0.5 0.3 -0.3
v 0.5 0.4 -0.3
v 0.5 0.5 -0.3
v 0.5 0.6 -0.3
v -0.3 0.1 -0.4
v -0.3 0.2 -0.4
v -0.3 0.3 -0.4
v -0.3 0.5 -0.4
v -0.3 0.6 -0.4
v -0.3 0.7 -0.4
v -0.2 0.2 -0.4
v -0.2 0.3 -0.4
v -0.2 0.5 -0.4
v -0.2 0.6 -0.4
v -0.2 0.7 -0.4
v -0.1 0.2 -0.4
v -0.1 0.3 -0.4
v -0.1 0.4 -0.4
v -0.1 0.5 -0.4
v 0 0.3 -0.4
v 0 0.4 -0.4
v 0.1 0.2 -0.4
v 0.1 0.3 -0.4
v 0.1 0.4 -0.4
v 0.1 0.5 -0.4
v 0.2 0.2 -0.4
v 0.2 0.3 -0.4
v 0.2 0.5 -0.4
v 0.2 0.6 -0.4
v 0.2 0.7 -0.4
v 0.3 0.1 -0.4
v 0.3 0.2 -0.4
v 0.3 0.3 -0.4
v 0.3 0.5 -0.4
v 0.3 0.6 -0.4
v 0.3 0.7 -0.4
v -0.3 0.1 0.3
v 0.3 0.1 0.3
v -0.4 0.1 0.2
v -0.3 0.1 0.2
v 0.3 0.1 0.2
v 0.4 0.1 0.2
v -0.3 0.1 0.1
v 0.2 0.1 0.1
v -0.3 0.1 -0.2
v -0.2 0.1 -0.2
v 0.1 0.1 -0.2
v 0.2 0.1 -0.2
v -0.4 0.1 -0.3
v -0.3 0.1 -0.3
v -0.2 0.1 -0.3
v 0.1 0.1 -0.3
v 0.3 0.1 -0.3
v 0.4 0.1 -0.3
v -0.3 0.1 -0.4
v 0.3 0.1 -0.4
v -0.5 0.2 0.1
v -0.4 0.2 0.1
v 0.4 0.2 0.1
v 0.5 0.2 0.1
v -0.5 0.2 0
v -0.4 0.2 0
v 0.4 0.2 0
v 0.5 0.2 0
v -0.5 0.2 -0.1
v -0.4 0.2 -0.1
v 0.4 0.2 -0.1
v 0.5 0.2 -0.1
v -0.5 0.2 -0.2
v -0.4 0.2 -0.2
v 0.4 0.2 -0.2
v 0.5 0.2 -0.2
v -0.4 0.3 0.3
v -0.3 0.3 0.3
v 0.3 0.3 0.3
v 0.4 0.3 0.3
v -0.5 0.3 0.2
v -0.4 0.3 0.2
v -0.3 0.3 0.2
v 0.3 0.3 0.2
v 0.4 0.3 0.2
v 0.5 0.3 0.2
v -0.7 0.3 0.1
v -0.5 0.3 0.1
v -0.4 0.3 0.1
v 0.4 0.3 0.1
v 0.5 0.3 0.1
v 0.7 0.3 0.1
v -0.5 0.3 0
v 0.5 0.3 0
v -0.5 0.3 -0.1
v 0.5 0.3 -0.1
v -0.7 0.3 -0.2
v -0.5 0.3 -0.2
v -0.4 0.3 -0.2
v 0.4 0.3 -0.2
v 0.5 0.3 -0.2
v 0.7 0.3 -0.2
v -0.5 0.3 -0.3
v -0.4 0.3 -0.3
v 0.4 0.3 -0.3
v 0.5 0.3 -0.3
v -0.1 0.4 -0.3
v 0 0.4 -0.3
v 0.1 0.4 -0.3
v -0.1 0.4 -0.4
v 0 0.4 -0.4
v 0.1 0.4 -0.4
v -0.7 0.5 0.1
v -0.6 0.5 0.1
v 0.6 0.5 0.1
v 0.7 0.5 0.1
v -0.7 0.5 -0.2
v -0.6 0.5 -0.2
v -0.1 0.5 -0.2
v 0.1 0.5 -0.2
v 0.6 0.5 -0.2
v 0.7 0.5 -0.2
v -0.2 0.5 -0.3
v -0.1 0.5 -0.3
v 0.1 0.5 -0.3
v 0.2 0.5 -0.3
v -0.2 0.5 -0.4
v -0.1 0.5 -0.4
v 0.1 0.5 -0.4
v 0.2 0.5 -0.4
v -0.4 0.6 0.3
v -0.3 0.6 0.3
v -0.2 0.6 0.3
v 0.2 0.6 0.3
v 0.3 0.6 0.3
v 0.4 0.6 0.3
v -0.5 0.6 0.2
v -0.4 0.6 0.2
v -0.3 0.6 0.2
v -0.2 0.6 0.2
v 0.2 0.6 0.2
v 0.3 0.6 0.2
v 0.4 0.6 0.2
v 0.5 0.6 0.2
v -0.6 0.6 0.1
v -0.5 0.6 0.1
v -0.4 0.6 0.1
v -0.3 0.6 0.1
v 0.3 0.6 0.1
v 0.4 0.6 0.1
v 0.5 0.6 0.1
v 0.6 0.6 0.1
v -0.5 0.6 0
v -0.4 0.6 0
v 0.4 0.6 0
v 0.5 0.6 0
v -0.5 0.6 -0.1
v -0.4 0.6 -0.1
v 0.4 0.6 -0.1
v 0.5 0.6 -0.1
v -0.6 0.6 -0.2
v -0.5 0.6 -0.2
v -0.4 0.6 -0.2
v -0.3 0.6 -0.2
v -0.2 0.6 -0.2
v -0.1 0.6 -0.2
v 0.1 0.6 -0.2
v 0.2 0.6 -0.2
v 0.3 0.6 -0.2
v 0.4 0.6 -0.2
v 0.5 0.6 -0.2
v 0.6 0.6 -0.2
v -0.5 0.6 -0.3
v -0.4 0.6 -0.3
v -0.3 0.6 -0.3
v -0.2 0.6 -0.3
v -0.1 0.6 -0.3
v 0.1 0.6 -0.3
v 0.2 0.6 -0.3
v 0.3 0.6 -0.3
v 0.4 0.6 -0.3
v 0.5 0.6 -0.3
v -0.2 0.7 0.3
v -0.1 0.7 0.3
v 0.1 0.7 0.3
v 0.2 0.7 0.3
v -0.3 0.7 0.2
v -0.2 0.7 0.2
v -0.1 0.7 0.2
v 0.1 0.7 0.2
v 0.2 0.7 0.2
v 0.3 0.7 0.2
v -0.4 0.7 0.1
v -0.3 0.7 0.1
v -0.2 0.7 0.1
v 0.2 0.7 0.1
v 0.3 0.7 0.1
v 0.4 0.7 0.1
v -0.4 0.7 0
v -0.3 0.7 0
v 0.3 0.7 0
v 0.4 0.7 0
v -0.4 0.7 -0.1
v -0.3 0.7 -0.1
v 0.3 0.7 -0.1
v 0.4 0.7 -0.1
v -0.4 0.7 -0.2
v -0.3 0.7 -0.2
v -0.2 0.7 -0.2
v 0.2 0.7 -0.2
v 0.3 0.7 -0.2
v 0.4 0.7 -0.2
v -0.3 0.7 -0.3
v -0.2 0.7 -0.3
v 0.2 0.7 -0.3
v 0.3 0.7 -0.3
v -0.3 0.7 -0.4
v -0.2 0.7 -0.4
v 0.2 0.7 -0.4
v 0.3 0.7 -0.4
v -0.2 1 0.1
v 0.2 1 0.1
v -0.2 1 -0.2
v 0.2 1 -0.2

# faces
f 3/8/1 2/8/1 1/8/1
f 4/8/1 2/8/1 3/8/1
f 5/7/1 4/7/1 3/7/1
f 6/7/1 4/7/1 5/7/1
f 9/7/1 8/7/1 7/7/1
f 10/7/1 8/7/1 9/7/1
f 16/10/1 12/10/1 11/10/1
f 17/11/1 13/11/1 12/11/1
f 17/10/1 12/10/1 16/10/1
f 18/10/1 14/10/1 13/10/1
f 18/11/1 13/11/1 17/11/1
f 19/10/1 14/10/1 18/10/1
f 21/10/1 16/10/1 15/10/1
f 22/10/1 16/10/1 21/10/1
f 23/10/1 20/10/1 19/10/1
f 24/10/1 20/10/1 23/10/1
f 25/11/1 22/11/1 21/11/1
f 26/11/1 22/11/1 25/11/1
f 27/11/1 24/11/1 23/11/1
f 28/11/1 24/11/1 27/11/1
f 29/10/1 26/10/1 25/10/1
f 30/10/1 26/10/1 29/10/1
f 31/10/1 28/10/1 27/10/1
f 32/10/1 28/10/1 31/10/1
f 35/5/1 34/5/1 33/5/1
f 36/5/1 34/5/1 35/5/1
f 37/5/1 34/5/1 36/5/1
f 38/5/1 34/5/1 37/5/1
f 39/5/1 34/5/1 38/5/1
f 40/5/1 34/5/1 39/5/1
f 42/14/1 36/14/1 35/14/1
f 43/14/1 36/14/1 42/14/1
f 44/4/1 40/4/1 39/4/1
f 45/4/1 40/4/1 44/4/1
f 46/4/1 42/4/1 41/4/1
f 47/4/1 46/4/1 41/4/1
f 48/4/1 47/4/1 41/4/1
f 49/4/1 47/4/1 48/4/1
f 54/10/1 51/10/1 50/10/1
f 55/11/1 52/11/1 51/11/1
f 55/10/1 51/10/1 54/10/1
f 56/10/1 53/10/1 52/10/1
f 56/11/1 52/11/1 55/11/1
f 57/10/1 53/10/1 56/10/1
f 62/5/1 59/5/1 58/5/1
f 63/5/1 59/5/1 62/5/1
f 64/5/1 61/5/1 60/5/1
f 65/5/1 61/5/1 64/5/1
f 66/3/1 63/3/1 62/3/1
f 67/3/1 63/3/1 66/3/1
f 68/3/1 65/3/1 64/3/1
f 69/3/1 65/3/1 68/3/1
f 70/12/1 69/12/1 68/12/1
f 71/12/1 69/12/1 70/12/1
f 75/13/1 71/13/1 70/13/1
f 76/13/1 71/13/1 75/13/1
f 77/11/1 73/11/1 72/11/1
f 78/11/1 73/11/1 77/11/1
f 79/9/1 75/9/1 74/9/1
f 80/11/1 76/11/1 75/11/1
f 80/9/1 75/9/1 79/9/1
f 81/11/1 76/11/1 80/11/1
f 84/9/1 83/9/1 82/9/1
f 85/9/1 83/9/1 84/9/1
f 88/1/1 87/1/1 86/1/1
f 89/1/1 87/1/1 88/1/1
f 93/13/1 91/13/1 90/13/1
f 94/13/1 91/13/1 93/13/1
f 95/7/1 93/7/1 92/7/1
f 96/7/1 93/7/1 95/7/1
f 100/13/1 98/13/1 97/13/1
f 101/13/1 98/13/1 100/13/1
f 102/9/1 100/9/1 99/9/1
f 103/11/1 101/11/1 100/11/1
f 103/9/1 100/9/1 102/9/1
f 104/11/1 101/11/1 103/11/1
f 105/13/2 106/13/2 108/13/2
f 108/13/2 106/13/2 109/13/2
f 107/9/2 108/9/2 110/9/2
f 108/11/2 109/11/2 111/11/2
f 110/9/2 108/9/2 111/9/2
f 111/11/2 109/11/2 112/11/2
f 113/13/2 114/13/2 116/13/2
f 116/13/2 114/13/2 117/13/2
f 115/7/2 116/7/2 118/7/2
f 118/7/2 116/7/2 119/7/2
f 120/9/2 121/9/2 122/9/2
f 122/9/2 121/9/2 123/9/2
f 124/1/2 125/1/2 126/1/2
f 126/1/2 125/1/2 127/1/2
f 128/5/2 129/5/2 132/5/2
f 132/5/2 129/5/2 133/5/2
f 130/5/2 131/5/2 134/5/2
f 134/5/2 131/5/2 135/5/2
f 132/3/2 133/3/2 136/3/2
f 136/3/2 133/3/2 137/3/2
f 134/3/2 135/3/2 138/3/2
f 138/3/2 135/3/2 139/3/2
f 138/12/2 139/12/2 140/12/2
f 140/12/2 139/12/2 141/12/2
f 140/13/2 141/13/2 145/13/2
f 145/13/2 141/13/2 146/13/2
f 142/9/2 143/9/2 147/9/2
f 147/9/2 143/9/2 148/9/2
f 144/9/2 145/9/2 149/9/2
f 145/11/2 146/11/2 150/11/2
f 149/9/2 145/9/2 150/9/2
f 150/11/2 146/11/2 151/11/2
f 152/5/2 153/5/2 154/5/2
f 154/5/2 153/5/2 155/5/2
f 155/5/2 153/5/2 156/5/2
f 156/5/2 153/5/2 157/5/2
f 157/5/2 153/5/2 158/5/2
f 158/5/2 153/5/2 159/5/2
f 154/14/2 155/14/2 161/14/2
f 161/14/2 155/14/2 162/14/2
f 158/4/2 159/4/2 163/4/2
f 163/4/2 159/4/2 164/4/2
f 160/4/2 161/4/2 165/4/2
f 160/4/2 165/4/2 166/4/2
f 160/4/2 166/4/2 167/4/2
f 167/4/2 166/4/2 168/4/2
f 169/10/2 170/10/2 173/10/2
f 170/11/2 171/11/2 174/11/2
f 173/10/2 170/10/2 174/10/2
f 171/10/2 172/10/2 175/10/2
f 174/11/2 171/11/2 175/11/2
f 175/10/2 172/10/2 176/10/2
f 177/10/2 178/10/2 182/10/2
f 178/11/2 179/11/2 183/11/2
f 182/10/2 178/10/2 183/10/2
f 179/10/2 180/10/2 184/10/2
f 183/11/2 179/11/2 184/11/2
f 184/10/2 180/10/2 185/10/2
f 181/10/2 182/10/2 187/10/2
f 187/10/2 182/10/2 188/10/2
f 185/10/2 186/10/2 189/10/2
f 189/10/2 186/10/2 190/10/2
f 187/11/2 188/11/2 191/11/2
f 191/11/2 188/11/2 192/11/2
f 189/11/2 190/11/2 193/11/2
f 193/11/2 190/11/2 194/11/2
f 191/10/2 192/10/2 195/10/2
f 195/10/2 192/10/2 196/10/2
f 193/10/2 194/10/2 197/10/2
f 197/10/2 194/10/2 198/10/2
f 199/7/2 200/7/2 201/7/2
f 201/7/2 200/7/2 202/7/2
f 203/8/2 204/8/2 205/8/2
f 205/8/2 204/8/2 206/8/2
f 205/7/2 206/7/2 207/7/2
f 207/7/2 206/7/2 208/7/2
f 213/4/3 210/4/3 209/4/3
f 214/4/3 210/4/3 213/4/3
f 215/5/3 212/5/3 211/5/3
f 215/3/3 213/3/3 212/3/3
f 216/14/3 214/14/3 213/14/3
f 216/3/3 213/3/3 215/3/3
f 217/14/3 214/14/3 216/14/3
f 218/14/3 214/14/3 217/14/3
f 220/14/3 218/14/3 217/14/3
f 220/12/3 217/12/3 216/12/3
f 221/9/3 219/9/3 218/9/3
f 221/14/3 218/14/3 220/14/3
f 222/9/3 219/9/3 221/9/3
f 223/12/3 220/12/3 216/12/3
f 223/12/3 221/12/3 220/12/3
f 224/11/3 222/11/3 221/11/3
f 224/12/3 221/12/3 223/12/3
f 225/11/3 222/11/3 224/11/3
f 226/5/3 215/5/3 211/5/3
f 226/14/3 216/14/3 215/14/3
f 227/12/3 223/12/3 216/12/3
f 227/14/3 216/14/3 226/14/3
f 228/14/3 224/14/3 223/14/3
f 228/12/3 223/12/3 227/12/3
f 229/9/3 225/9/3 224/9/3
f 229/14/3 224/14/3 228/14/3
f 230/9/3 225/9/3 229/9/3
f 231/5/3 226/5/3 211/5/3
f 232/3/3 227/3/3 226/3/3
f 232/5/3 226/5/3 231/5/3
f 233/14/3 228/14/3 227/14/3
f 233/3/3 227/3/3 232/3/3
f 233/14/3 229/14/3 228/14/3
f 234/14/3 229/14/3 233/14/3
f 235/4/3 234/4/3 233/4/3
f 236/4/3 234/4/3 235/4/3
f 243/10/3 238/10/3 237/10/3
f 244/11/3 239/11/3 238/11/3
f 244/10/3 238/10/3 243/10/3
f 245/10/3 240/10/3 239/10/3
f 245/11/3 239/11/3 244/11/3
f 246/10/3 240/10/3 245/10/3
f 247/5/3 242/5/3 241/5/3
f 248/14/3 243/14/3 242/14/3
f 248/5/3 242/5/3 247/5/3
f 249/14/3 243/14/3 248/14/3
f 252/11/3 251/11/3 250/11/3
f 253/11/3 251/11/3 252/11/3
f 259/9/3 255/9/3 254/9/3
f 260/9/3 255/9/3 259/9/3
f 261/5/3 257/5/3 256/5/3
f 262/14/3 258/14/3 257/14/3
f 262/5/3 257/5/3 261/5/3
f 263/14/3 258/14/3 262/14/3
f 267/10/3 264/10/3 263/10/3
f 268/11/3 265/11/3 264/11/3
f 268/10/3 264/10/3 267/10/3
f 269/10/3 266/10/3 265/10/3
f 269/11/3 265/11/3 268/11/3
f 270/10/3 266/10/3 269/10/3
f 274/7/3 273/7/3 272/7/3
f 277/8/3 272/8/3 271/8/3
f 278/7/3 275/7/3 274/7/3
f 278/7/3 274/7/3 272/7/3
f 278/8/3 272/8/3 277/8/3
f 279/7/3 275/7/3 278/7/3
f 280/7/3 275/7/3 279/7/3
f 281/10/3 277/10/3 276/10/3
f 282/10/3 277/10/3 281/10/3
f 285/10/3 284/10/3 283/10/3
f 286/10/3 284/10/3 285/10/3
f 289/1/3 288/1/3 287/1/3
f 290/1/3 288/1/3 289/1/3
f 295/10/3 292/10/3 291/10/3
f 296/10/3 292/10/3 295/10/3
f 297/10/3 294/10/3 293/10/3
f 298/10/3 294/10/3 297/10/3
f 302/7/3 301/7/3 300/7/3
f 302/7/3 300/7/3 299/7/3
f 303/7/3 301/7/3 302/7/3
f 304/8/3 299/8/3 298/8/3
f 305/7/3 302/7/3 299/7/3
f 305/8/3 299/8/3 304/8/3
f 306/7/3 302/7/3 305/7/3
f 308/7/4 309/7/4 310/7/4
f 307/8/4 308/8/4 313/8/4
f 310/7/4 311/7/4 314/7/4
f 308/7/4 310/7/4 314/7/4
f 313/8/4 308/8/4 314/8/4
f 314/7/4 311/7/4 315/7/4
f 315/7/4 311/7/4 316/7/4
f 312/10/4 313/10/4 317/10/4
f 317/10/4 313/10/4 318/10/4
f 319/10/4 320/10/4 321/10/4
f 321/10/4 320/10/4 322/10/4
f 323/2/4 324/2/4 327/2/4
f 324/1/4 325/1/4 328/1/4
f 327/2/4 324/2/4 328/2/4
f 326/2/4 327/2/4 329/2/4
f 327/1/4 328/1/4 330/1/4
f 329/2/4 327/2/4 330/2/4
f 328/1/4 325/1/4 331/1/4
f 330/1/4 328/1/4 331/1/4
f 330/2/4 331/2/4 332/2/4
f 331/1/4 325/1/4 333/1/4
f 332/2/4 331/2/4 333/2/4
f 333/1/4 325/1/4 334/1/4
f 335/10/4 336/10/4 339/10/4
f 339/10/4 336/10/4 340/10/4
f 337/10/4 338/10/4 341/10/4
f 341/10/4 338/10/4 342/10/4
f 344/7/4 345/7/4 346/7/4
f 343/7/4 344/7/4 346/7/4
f 346/7/4 345/7/4 347/7/4
f 342/8/4 343/8/4 348/8/4
f 343/7/4 346/7/4 349/7/4
f 348/8/4 343/8/4 349/8/4
f 349/7/4 346/7/4 350/7/4
f 351/10/4 352/10/4 357/10/4
f 352/11/4 353/11/4 358/11/4
f 357/10/4 352/10/4 358/10/4
f 353/10/4 354/10/4 359/10/4
f 358/11/4 353/11/4 359/11/4
f 359/10/4 354/10/4 360/10/4
f 355/5/4 356/5/4 361/5/4
f 356/4/4 357/4/4 362/4/4
f 361/5/4 356/5/4 362/5/4
f 357/4/4 358/4/4 362/4/4
f 358/4/4 359/4/4 362/4/4
f 362/4/4 359/4/4 363/4/4
f 359/13/4 360/13/4 364/13/4
f 363/4/4 359/4/4 364/4/4
f 364/13/4 360/13/4 365/13/4
f 366/7/4 367/7/4 369/7/4
f 369/7/4 367/7/4 370/7/4
f 368/7/4 369/7/4 371/7/4
f 371/7/4 369/7/4 372/7/4
f 372/7/4 369/7/4 373/7/4
f 373/7/4 374/7/4 375/7/4
f 375/7/4 374/7/4 376/7/4
f 377/5/4 378/5/4 382/5/4
f 378/4/4 379/4/4 383/4/4
f 382/5/4 378/5/4 383/5/4
f 379/4/4 380/4/4 383/4/4
f 383/4/4 380/4/4 384/4/4
f 384/4/4 380/4/4 385/4/4
f 380/13/4 381/13/4 386/13/4
f 385/4/4 380/4/4 386/4/4
f 386/13/4 381/13/4 387/13/4
f 384/10/4 385/10/4 388/10/4
f 385/11/4 386/11/4 389/11/4
f 388/10/4 385/10/4 389/10/4
f 386/10/4 387/10/4 390/10/4
f 389/11/4 386/11/4 390/11/4
f 390/10/4 387/10/4 391/10/4
f 392/5/4 393/5/4 398/5/4
f 393/3/4 394/3/4 398/3/4
f 394/12/4 395/12/4 399/12/4
f 398/3/4 394/3/4 399/3/4
f 395/13/4 396/13/4 400/13/4
f 399/12/4 395/12/4 400/12/4
f 396/11/4 397/11/4 401/11/4
f 400/13/4 396/13/4 401/13/4
f 401/11/4 397/11/4 402/11/4
f 398/12/4 399/12/4 403/12/4
f 392/5/4 398/5/4 403/5/4
f 399/13/4 400/13/4 404/13/4
f 403/12/4 399/12/4 404/12/4
f 404/13/4 400/13/4 405/13/4
f 405/13/4 400/13/4 406/13/4
f 403/13/4 404/13/4 407/13/4
f 404/5/4 405/5/4 407/5/4
f 407/5/4 405/5/4 408/5/4
f 392/5/4 403/5/4 409/5/4
f 403/13/4 407/13/4 409/13/4
f 407/6/4 408/6/4 410/6/4
f 409/13/4 407/13/4 410/13/4
f 410/6/4 408/6/4 411/6/4
f 392/5/4 409/5/4 413/5/4
f 409/12/4 410/12/4 413/12/4
f 410/13/4 411/13/4 414/13/4
f 413/12/4 410/12/4 414/12/4
f 411/13/4 412/13/4 414/13/4
f 414/13/4 412/13/4 415/13/4
f 392/5/4 413/5/4 418/5/4
f 413/3/4 414/3/4 419/3/4
f 418/5/4 413/5/4 419/5/4
f 414/12/4 415/12/4 420/12/4
f 419/3/4 414/3/4 420/3/4
f 415/13/4 416/13/4 421/13/4
f 420/12/4 415/12/4 421/12/4
f 416/11/4 417/11/4 422/11/4
f 421/13/4 416/13/4 422/13/4
f 422/11/4 417/11/4 423/11/4
f 427/5/5 425/5/5 424/5/5
f 428/5/5 425/5/5 427/5/5
f 430/5/5 427/5/5 426/5/5
f 430/12/5 428/12/5 427/12/5
f 431/12/5 428/12/5 430/12/5
f 432/5/5 430/5/5 426/5/5
f 432/14/5 431/14/5 430/14/5
f 433/14/5 431/14/5 432/14/5
f 434/14/5 431/14/5 433/14/5
f 435/12/5 428/12/5 431/12/5
f 435/14/5 431/14/5 434/14/5
f 436/5/5 432/5/5 426/5/5
f 437/12/5 433/12/5 432/12/5
f 437/5/5 432/5/5 436/5/5
f 438/14/5 434/14/5 433/14/5
f 438/12/5 433/12/5 437/12/5
f 439/12/5 435/12/5 434/12/5
f 439/14/5 434/14/5 438/14/5
f 440/5/5 429/5/5 428/5/5
f 440/12/5 435/12/5 439/12/5
f 440/12/5 428/12/5 435/12/5
f 441/5/5 429/5/5 440/5/5
f 442/5/5 439/5/5 438/5/5
f 442/5/5 440/5/5 439/5/5
f 442/5/5 438/5/5 437/5/5
f 443/5/5 440/5/5 442/5/5
f 448/10/5 445/10/5 444/10/5
f 449/10/5 445/10/5 448/10/5
f 450/10/5 447/10/5 446/10/5
f 451/10/5 447/10/5 450/10/5
f 452/11/5 449/11/5 448/11/5
f 453/11/5 449/11/5 452/11/5
f 454/11/5 451/11/5 450/11/5
f 455/11/5 451/11/5 454/11/5
f 456/10/5 453/10/5 452/10/5
f 457/10/5 453/10/5 456/10/5
f 458/10/5 455/10/5 454/10/5
f 459/10/5 455/10/5 458/10/5
f 465/4/5 461/4/5 460/4/5
f 466/4/5 461/4/5 465/4/5
f 467/4/5 463/4/5 462/4/5
f 468/4/5 463/4/5 467/4/5
f 471/10/5 465/10/5 464/10/5
f 472/10/5 465/10/5 471/10/5
f 473/10/5 469/10/5 468/10/5
f 474/10/5 469/10/5 473/10/5
f 476/8/5 471/8/5 470/8/5
f 477/8/5 475/8/5 474/8/5
f 478/8/5 476/8/5 470/8/5
f 479/8/5 475/8/5 477/8/5
f 480/8/5 478/8/5 470/8/5
f 481/8/5 478/8/5 480/8/5
f 484/8/5 475/8/5 479/8/5
f 485/8/5 475/8/5 484/8/5
f 486/10/5 482/10/5 481/10/5
f 487/10/5 482/10/5 486/10/5
f 488/10/5 484/10/5 483/10/5
f 489/10/5 484/10/5 488/10/5
f 490/5/6 491/5/6 493/5/6
f 491/6/6 492/6/6 494/6/6
f 493/5/6 491/5/6 494/5/6
f 494/6/6 492/6/6 495/6/6
f 496/7/6 497/7/6 500/7/6
f 500/7/6 497/7/6 501/7/6
f 498/7/6 499/7/6 504/7/6
f 504/7/6 499/7/6 505/7/6
f 502/7/6 503/7/6 507/7/6
f 507/7/6 503/7/6 508/7/6
f 506/13/6 507/13/6 510/13/6
f 510/13/6 507/13/6 511/13/6
f 508/13/6 509/13/6 512/13/6
f 512/13/6 509/13/6 513/13/6
f 514/4/6 515/4/6 521/4/6
f 515/14/6 516/14/6 522/14/6
f 521/4/6 515/4/6 522/4/6
f 522/14/6 516/14/6 523/14/6
f 517/14/6 518/14/6 524/14/6
f 518/4/6 519/4/6 525/4/6
f 524/14/6 518/14/6 525/14/6
f 525/4/6 519/4/6 526/4/6
f 520/10/6 521/10/6 529/10/6
f 521/14/6 522/14/6 530/14/6
f 529/10/6 521/10/6 530/10/6
f 530/14/6 522/14/6 531/14/6
f 525/14/6 526/14/6 532/14/6
f 526/10/6 527/10/6 533/10/6
f 532/14/6 526/14/6 533/14/6
f 533/10/6 527/10/6 534/10/6
f 528/7/6 529/7/6 536/7/6
f 529/11/6 530/11/6 536/11/6
f 536/11/6 530/11/6 537/11/6
f 533/11/6 534/11/6 538/11/6
f 534/7/6 535/7/6 539/7/6
f 538/11/6 534/11/6 539/11/6
f 536/10/6 537/10/6 540/10/6
f 528/7/6 536/7/6 540/7/6
f 540/10/6 537/10/6 541/10/6
f 538/10/6 539/10/6 542/10/6
f 539/7/6 535/7/6 543/7/6
f 542/10/6 539/10/6 543/10/6
f 528/7/6 540/7/6 544/7/6
f 540/11/6 541/11/6 545/11/6
f 544/7/6 540/7/6 545/7/6
f 545/11/6 541/11/6 546/11/6
f 542/11/6 543/11/6 553/11/6
f 543/7/6 535/7/6 554/7/6
f 553/11/6 543/11/6 554/11/6
f 554/7/6 535/7/6 555/7/6
f 545/10/6 546/10/6 556/10/6
f 546/13/6 547/13/6 557/13/6
f 556/10/6 546/10/6 557/10/6
f 557/13/6 547/13/6 558/13/6
f 548/7/6 549/7/6 559/7/6
f 559/7/6 549/7/6 560/7/6
f 550/7/6 551/7/6 561/7/6
f 561/7/6 551/7/6 562/7/6
f 552/13/6 553/13/6 563/13/6
f 553/10/6 554/10/6 564/10/6
f 563/13/6 553/13/6 564/13/6
f 564/10/6 554/10/6 565/10/6
f 566/9/6 567/9/6 571/9/6
f 567/11/6 568/11/6 572/11/6
f 571/9/6 567/9/6 572/9/6
f 568/9/6 569/9/6 573/9/6
f 572/11/6 568/11/6 573/11/6
f 573/9/6 569/9/6 574/9/6
f 570/11/6 571/11/6 577/11/6
f 571/14/6 572/14/6 578/14/6
f 572/14/6 573/14/6 578/14/6
f 577/11/6 571/11/6 578/11/6
f 573/14/6 574/14/6 578/14/6
f 574/9/6 575/9/6 579/9/6
f 578/14/6 574/14/6 579/14/6
f 579/9/6 575/9/6 580/9/6
f 576/10/6 577/10/6 582/10/6
f 577/9/6 578/9/6 583/9/6
f 582/10/6 577/10/6 583/10/6
f 580/10/6 581/10/6 584/10/6
f 579/9/6 580/9/6 584/9/6
f 584/10/6 581/10/6 585/10/6
f 582/11/6 583/11/6 586/11/6
f 583/9/6 578/9/6 587/9/6
f 586/11/6 583/11/6 587/11/6
f 579/9/6 584/9/6 588/9/6
f 584/11/6 585/11/6 588/11/6
f 588/11/6 585/11/6 589/11/6
f 586/10/6 587/10/6 590/10/6
f 587/9/6 578/9/6 591/9/6
f 590/10/6 587/10/6 591/10/6
f 591/9/6 578/9/6 592/9/6
f 579/9/6 588/9/6 593/9/6
f 588/10/6 589/10/6 594/10/6
f 593/9/6 588/9/6 594/9/6
f 594/10/6 589/10/6 595/10/6
f 591/9/6 592/9/6 596/9/6
f 596/9/6 592/9/6 597/9/6
f 593/9/6 594/9/6 598/9/6
f 598/9/6 594/9/6 599/9/6
f 596/11/6 597/11/6 600/11/6
f 600/11/6 597/11/6 601/11/6
f 598/11/6 599/11/6 602/11/6
f 602/11/6 599/11/6 603/11/6
f 604/1/6 605/1/6 606/1/6
f 606/1/6 605/1/6 607/1/6
